<?xml version="1.0" encoding="utf-8" standalone="no"?>
<!DOCTYPE svg PUBLIC "-//W3C//DTD SVG 1.1//EN"
  "http://www.w3.org/Graphics/SVG/1.1/DTD/svg11.dtd">
<svg xmlns:xlink="http://www.w3.org/1999/xlink" width="720pt" height="432pt" viewBox="0 0 720 432" xmlns="http://www.w3.org/2000/svg" version="1.1">
 <metadata>
  <rdf:RDF xmlns:dc="http://purl.org/dc/elements/1.1/" xmlns:cc="http://creativecommons.org/ns#" xmlns:rdf="http://www.w3.org/1999/02/22-rdf-syntax-ns#">
   <cc:Work>
    <dc:type rdf:resource="http://purl.org/dc/dcmitype/StillImage"/>
    <dc:date>2025-06-30T13:34:18.096492</dc:date>
    <dc:format>image/svg+xml</dc:format>
    <dc:creator>
     <cc:Agent>
      <dc:title>Matplotlib v3.9.2, https://matplotlib.org/</dc:title>
     </cc:Agent>
    </dc:creator>
   </cc:Work>
  </rdf:RDF>
 </metadata>
 <defs>
  <style type="text/css">*{stroke-linejoin: round; stroke-linecap: butt}</style>
 </defs>
 <g id="figure_1">
  <g id="patch_1">
   <path d="M 0 432 
L 720 432 
L 720 0 
L 0 0 
z
" style="fill: #ffffff"/>
  </g>
  <g id="axes_1">
   <g id="patch_2">
    <path d="M 90 384.48 
L 648 384.48 
L 648 51.84 
L 90 51.84 
z
" style="fill: #ffffff"/>
   </g>
   <g id="matplotlib.axis_1">
    <g id="xtick_1">
     <g id="line2d_1">
      <defs>
       <path id="m3bce269d25" d="M 0 0 
L 0 3.5 
" style="stroke: #000000; stroke-width: 0.8"/>
      </defs>
      <g>
       <use xlink:href="#m3bce269d25" x="115.363636" y="384.48" style="stroke: #000000; stroke-width: 0.8"/>
      </g>
     </g>
     <g id="text_1">
      <!-- 0.0 -->
      <g transform="translate(107.412074 399.078438) scale(0.1 -0.1)">
       <defs>
        <path id="DejaVuSans-30" d="M 2034 4250 
Q 1547 4250 1301 3770 
Q 1056 3291 1056 2328 
Q 1056 1369 1301 889 
Q 1547 409 2034 409 
Q 2525 409 2770 889 
Q 3016 1369 3016 2328 
Q 3016 3291 2770 3770 
Q 2525 4250 2034 4250 
z
M 2034 4750 
Q 2819 4750 3233 4129 
Q 3647 3509 3647 2328 
Q 3647 1150 3233 529 
Q 2819 -91 2034 -91 
Q 1250 -91 836 529 
Q 422 1150 422 2328 
Q 422 3509 836 4129 
Q 1250 4750 2034 4750 
z
" transform="scale(0.015625)"/>
        <path id="DejaVuSans-2e" d="M 684 794 
L 1344 794 
L 1344 0 
L 684 0 
L 684 794 
z
" transform="scale(0.015625)"/>
       </defs>
       <use xlink:href="#DejaVuSans-30"/>
       <use xlink:href="#DejaVuSans-2e" x="63.623047"/>
       <use xlink:href="#DejaVuSans-30" x="95.410156"/>
      </g>
     </g>
    </g>
    <g id="xtick_2">
     <g id="line2d_2">
      <g>
       <use xlink:href="#m3bce269d25" x="214.216781" y="384.48" style="stroke: #000000; stroke-width: 0.8"/>
      </g>
     </g>
     <g id="text_2">
      <!-- 0.2 -->
      <g transform="translate(206.265219 399.078438) scale(0.1 -0.1)">
       <defs>
        <path id="DejaVuSans-32" d="M 1228 531 
L 3431 531 
L 3431 0 
L 469 0 
L 469 531 
Q 828 903 1448 1529 
Q 2069 2156 2228 2338 
Q 2531 2678 2651 2914 
Q 2772 3150 2772 3378 
Q 2772 3750 2511 3984 
Q 2250 4219 1831 4219 
Q 1534 4219 1204 4116 
Q 875 4013 500 3803 
L 500 4441 
Q 881 4594 1212 4672 
Q 1544 4750 1819 4750 
Q 2544 4750 2975 4387 
Q 3406 4025 3406 3419 
Q 3406 3131 3298 2873 
Q 3191 2616 2906 2266 
Q 2828 2175 2409 1742 
Q 1991 1309 1228 531 
z
" transform="scale(0.015625)"/>
       </defs>
       <use xlink:href="#DejaVuSans-30"/>
       <use xlink:href="#DejaVuSans-2e" x="63.623047"/>
       <use xlink:href="#DejaVuSans-32" x="95.410156"/>
      </g>
     </g>
    </g>
    <g id="xtick_3">
     <g id="line2d_3">
      <g>
       <use xlink:href="#m3bce269d25" x="313.069926" y="384.48" style="stroke: #000000; stroke-width: 0.8"/>
      </g>
     </g>
     <g id="text_3">
      <!-- 0.4 -->
      <g transform="translate(305.118364 399.078438) scale(0.1 -0.1)">
       <defs>
        <path id="DejaVuSans-34" d="M 2419 4116 
L 825 1625 
L 2419 1625 
L 2419 4116 
z
M 2253 4666 
L 3047 4666 
L 3047 1625 
L 3713 1625 
L 3713 1100 
L 3047 1100 
L 3047 0 
L 2419 0 
L 2419 1100 
L 313 1100 
L 313 1709 
L 2253 4666 
z
" transform="scale(0.015625)"/>
       </defs>
       <use xlink:href="#DejaVuSans-30"/>
       <use xlink:href="#DejaVuSans-2e" x="63.623047"/>
       <use xlink:href="#DejaVuSans-34" x="95.410156"/>
      </g>
     </g>
    </g>
    <g id="xtick_4">
     <g id="line2d_4">
      <g>
       <use xlink:href="#m3bce269d25" x="411.923071" y="384.48" style="stroke: #000000; stroke-width: 0.8"/>
      </g>
     </g>
     <g id="text_4">
      <!-- 0.6 -->
      <g transform="translate(403.971509 399.078438) scale(0.1 -0.1)">
       <defs>
        <path id="DejaVuSans-36" d="M 2113 2584 
Q 1688 2584 1439 2293 
Q 1191 2003 1191 1497 
Q 1191 994 1439 701 
Q 1688 409 2113 409 
Q 2538 409 2786 701 
Q 3034 994 3034 1497 
Q 3034 2003 2786 2293 
Q 2538 2584 2113 2584 
z
M 3366 4563 
L 3366 3988 
Q 3128 4100 2886 4159 
Q 2644 4219 2406 4219 
Q 1781 4219 1451 3797 
Q 1122 3375 1075 2522 
Q 1259 2794 1537 2939 
Q 1816 3084 2150 3084 
Q 2853 3084 3261 2657 
Q 3669 2231 3669 1497 
Q 3669 778 3244 343 
Q 2819 -91 2113 -91 
Q 1303 -91 875 529 
Q 447 1150 447 2328 
Q 447 3434 972 4092 
Q 1497 4750 2381 4750 
Q 2619 4750 2861 4703 
Q 3103 4656 3366 4563 
z
" transform="scale(0.015625)"/>
       </defs>
       <use xlink:href="#DejaVuSans-30"/>
       <use xlink:href="#DejaVuSans-2e" x="63.623047"/>
       <use xlink:href="#DejaVuSans-36" x="95.410156"/>
      </g>
     </g>
    </g>
    <g id="xtick_5">
     <g id="line2d_5">
      <g>
       <use xlink:href="#m3bce269d25" x="510.776217" y="384.48" style="stroke: #000000; stroke-width: 0.8"/>
      </g>
     </g>
     <g id="text_5">
      <!-- 0.8 -->
      <g transform="translate(502.824654 399.078438) scale(0.1 -0.1)">
       <defs>
        <path id="DejaVuSans-38" d="M 2034 2216 
Q 1584 2216 1326 1975 
Q 1069 1734 1069 1313 
Q 1069 891 1326 650 
Q 1584 409 2034 409 
Q 2484 409 2743 651 
Q 3003 894 3003 1313 
Q 3003 1734 2745 1975 
Q 2488 2216 2034 2216 
z
M 1403 2484 
Q 997 2584 770 2862 
Q 544 3141 544 3541 
Q 544 4100 942 4425 
Q 1341 4750 2034 4750 
Q 2731 4750 3128 4425 
Q 3525 4100 3525 3541 
Q 3525 3141 3298 2862 
Q 3072 2584 2669 2484 
Q 3125 2378 3379 2068 
Q 3634 1759 3634 1313 
Q 3634 634 3220 271 
Q 2806 -91 2034 -91 
Q 1263 -91 848 271 
Q 434 634 434 1313 
Q 434 1759 690 2068 
Q 947 2378 1403 2484 
z
M 1172 3481 
Q 1172 3119 1398 2916 
Q 1625 2713 2034 2713 
Q 2441 2713 2670 2916 
Q 2900 3119 2900 3481 
Q 2900 3844 2670 4047 
Q 2441 4250 2034 4250 
Q 1625 4250 1398 4047 
Q 1172 3844 1172 3481 
z
" transform="scale(0.015625)"/>
       </defs>
       <use xlink:href="#DejaVuSans-30"/>
       <use xlink:href="#DejaVuSans-2e" x="63.623047"/>
       <use xlink:href="#DejaVuSans-38" x="95.410156"/>
      </g>
     </g>
    </g>
    <g id="xtick_6">
     <g id="line2d_6">
      <g>
       <use xlink:href="#m3bce269d25" x="609.629362" y="384.48" style="stroke: #000000; stroke-width: 0.8"/>
      </g>
     </g>
     <g id="text_6">
      <!-- 1.0 -->
      <g transform="translate(601.677799 399.078438) scale(0.1 -0.1)">
       <defs>
        <path id="DejaVuSans-31" d="M 794 531 
L 1825 531 
L 1825 4091 
L 703 3866 
L 703 4441 
L 1819 4666 
L 2450 4666 
L 2450 531 
L 3481 531 
L 3481 0 
L 794 0 
L 794 531 
z
" transform="scale(0.015625)"/>
       </defs>
       <use xlink:href="#DejaVuSans-31"/>
       <use xlink:href="#DejaVuSans-2e" x="63.623047"/>
       <use xlink:href="#DejaVuSans-30" x="95.410156"/>
      </g>
     </g>
    </g>
    <g id="text_7">
     <!-- x -->
     <g transform="translate(366.040625 412.756563) scale(0.1 -0.1)">
      <defs>
       <path id="DejaVuSans-78" d="M 3513 3500 
L 2247 1797 
L 3578 0 
L 2900 0 
L 1881 1375 
L 863 0 
L 184 0 
L 1544 1831 
L 300 3500 
L 978 3500 
L 1906 2253 
L 2834 3500 
L 3513 3500 
z
" transform="scale(0.015625)"/>
      </defs>
      <use xlink:href="#DejaVuSans-78"/>
     </g>
    </g>
   </g>
   <g id="matplotlib.axis_2">
    <g id="ytick_1">
     <g id="line2d_7">
      <defs>
       <path id="m7f93b9da7e" d="M 0 0 
L -3.5 0 
" style="stroke: #000000; stroke-width: 0.8"/>
      </defs>
      <g>
       <use xlink:href="#m7f93b9da7e" x="90" y="369.36" style="stroke: #000000; stroke-width: 0.8"/>
      </g>
     </g>
     <g id="text_8">
      <!-- 0.0 -->
      <g transform="translate(67.096875 373.159219) scale(0.1 -0.1)">
       <use xlink:href="#DejaVuSans-30"/>
       <use xlink:href="#DejaVuSans-2e" x="63.623047"/>
       <use xlink:href="#DejaVuSans-30" x="95.410156"/>
      </g>
     </g>
    </g>
    <g id="ytick_2">
     <g id="line2d_8">
      <g>
       <use xlink:href="#m7f93b9da7e" x="90" y="308.88" style="stroke: #000000; stroke-width: 0.8"/>
      </g>
     </g>
     <g id="text_9">
      <!-- 0.2 -->
      <g transform="translate(67.096875 312.679219) scale(0.1 -0.1)">
       <use xlink:href="#DejaVuSans-30"/>
       <use xlink:href="#DejaVuSans-2e" x="63.623047"/>
       <use xlink:href="#DejaVuSans-32" x="95.410156"/>
      </g>
     </g>
    </g>
    <g id="ytick_3">
     <g id="line2d_9">
      <g>
       <use xlink:href="#m7f93b9da7e" x="90" y="248.4" style="stroke: #000000; stroke-width: 0.8"/>
      </g>
     </g>
     <g id="text_10">
      <!-- 0.4 -->
      <g transform="translate(67.096875 252.199219) scale(0.1 -0.1)">
       <use xlink:href="#DejaVuSans-30"/>
       <use xlink:href="#DejaVuSans-2e" x="63.623047"/>
       <use xlink:href="#DejaVuSans-34" x="95.410156"/>
      </g>
     </g>
    </g>
    <g id="ytick_4">
     <g id="line2d_10">
      <g>
       <use xlink:href="#m7f93b9da7e" x="90" y="187.92" style="stroke: #000000; stroke-width: 0.8"/>
      </g>
     </g>
     <g id="text_11">
      <!-- 0.6 -->
      <g transform="translate(67.096875 191.719219) scale(0.1 -0.1)">
       <use xlink:href="#DejaVuSans-30"/>
       <use xlink:href="#DejaVuSans-2e" x="63.623047"/>
       <use xlink:href="#DejaVuSans-36" x="95.410156"/>
      </g>
     </g>
    </g>
    <g id="ytick_5">
     <g id="line2d_11">
      <g>
       <use xlink:href="#m7f93b9da7e" x="90" y="127.44" style="stroke: #000000; stroke-width: 0.8"/>
      </g>
     </g>
     <g id="text_12">
      <!-- 0.8 -->
      <g transform="translate(67.096875 131.239219) scale(0.1 -0.1)">
       <use xlink:href="#DejaVuSans-30"/>
       <use xlink:href="#DejaVuSans-2e" x="63.623047"/>
       <use xlink:href="#DejaVuSans-38" x="95.410156"/>
      </g>
     </g>
    </g>
    <g id="ytick_6">
     <g id="line2d_12">
      <g>
       <use xlink:href="#m7f93b9da7e" x="90" y="66.96" style="stroke: #000000; stroke-width: 0.8"/>
      </g>
     </g>
     <g id="text_13">
      <!-- 1.0 -->
      <g transform="translate(67.096875 70.759219) scale(0.1 -0.1)">
       <use xlink:href="#DejaVuSans-31"/>
       <use xlink:href="#DejaVuSans-2e" x="63.623047"/>
       <use xlink:href="#DejaVuSans-30" x="95.410156"/>
      </g>
     </g>
    </g>
    <g id="text_14">
     <!-- density -->
     <g transform="translate(61.017187 236.492812) rotate(-90) scale(0.1 -0.1)">
      <defs>
       <path id="DejaVuSans-64" d="M 2906 2969 
L 2906 4863 
L 3481 4863 
L 3481 0 
L 2906 0 
L 2906 525 
Q 2725 213 2448 61 
Q 2172 -91 1784 -91 
Q 1150 -91 751 415 
Q 353 922 353 1747 
Q 353 2572 751 3078 
Q 1150 3584 1784 3584 
Q 2172 3584 2448 3432 
Q 2725 3281 2906 2969 
z
M 947 1747 
Q 947 1113 1208 752 
Q 1469 391 1925 391 
Q 2381 391 2643 752 
Q 2906 1113 2906 1747 
Q 2906 2381 2643 2742 
Q 2381 3103 1925 3103 
Q 1469 3103 1208 2742 
Q 947 2381 947 1747 
z
" transform="scale(0.015625)"/>
       <path id="DejaVuSans-65" d="M 3597 1894 
L 3597 1613 
L 953 1613 
Q 991 1019 1311 708 
Q 1631 397 2203 397 
Q 2534 397 2845 478 
Q 3156 559 3463 722 
L 3463 178 
Q 3153 47 2828 -22 
Q 2503 -91 2169 -91 
Q 1331 -91 842 396 
Q 353 884 353 1716 
Q 353 2575 817 3079 
Q 1281 3584 2069 3584 
Q 2775 3584 3186 3129 
Q 3597 2675 3597 1894 
z
M 3022 2063 
Q 3016 2534 2758 2815 
Q 2500 3097 2075 3097 
Q 1594 3097 1305 2825 
Q 1016 2553 972 2059 
L 3022 2063 
z
" transform="scale(0.015625)"/>
       <path id="DejaVuSans-6e" d="M 3513 2113 
L 3513 0 
L 2938 0 
L 2938 2094 
Q 2938 2591 2744 2837 
Q 2550 3084 2163 3084 
Q 1697 3084 1428 2787 
Q 1159 2491 1159 1978 
L 1159 0 
L 581 0 
L 581 3500 
L 1159 3500 
L 1159 2956 
Q 1366 3272 1645 3428 
Q 1925 3584 2291 3584 
Q 2894 3584 3203 3211 
Q 3513 2838 3513 2113 
z
" transform="scale(0.015625)"/>
       <path id="DejaVuSans-73" d="M 2834 3397 
L 2834 2853 
Q 2591 2978 2328 3040 
Q 2066 3103 1784 3103 
Q 1356 3103 1142 2972 
Q 928 2841 928 2578 
Q 928 2378 1081 2264 
Q 1234 2150 1697 2047 
L 1894 2003 
Q 2506 1872 2764 1633 
Q 3022 1394 3022 966 
Q 3022 478 2636 193 
Q 2250 -91 1575 -91 
Q 1294 -91 989 -36 
Q 684 19 347 128 
L 347 722 
Q 666 556 975 473 
Q 1284 391 1588 391 
Q 1994 391 2212 530 
Q 2431 669 2431 922 
Q 2431 1156 2273 1281 
Q 2116 1406 1581 1522 
L 1381 1569 
Q 847 1681 609 1914 
Q 372 2147 372 2553 
Q 372 3047 722 3315 
Q 1072 3584 1716 3584 
Q 2034 3584 2315 3537 
Q 2597 3491 2834 3397 
z
" transform="scale(0.015625)"/>
       <path id="DejaVuSans-69" d="M 603 3500 
L 1178 3500 
L 1178 0 
L 603 0 
L 603 3500 
z
M 603 4863 
L 1178 4863 
L 1178 4134 
L 603 4134 
L 603 4863 
z
" transform="scale(0.015625)"/>
       <path id="DejaVuSans-74" d="M 1172 4494 
L 1172 3500 
L 2356 3500 
L 2356 3053 
L 1172 3053 
L 1172 1153 
Q 1172 725 1289 603 
Q 1406 481 1766 481 
L 2356 481 
L 2356 0 
L 1766 0 
Q 1100 0 847 248 
Q 594 497 594 1153 
L 594 3053 
L 172 3053 
L 172 3500 
L 594 3500 
L 594 4494 
L 1172 4494 
z
" transform="scale(0.015625)"/>
       <path id="DejaVuSans-79" d="M 2059 -325 
Q 1816 -950 1584 -1140 
Q 1353 -1331 966 -1331 
L 506 -1331 
L 506 -850 
L 844 -850 
Q 1081 -850 1212 -737 
Q 1344 -625 1503 -206 
L 1606 56 
L 191 3500 
L 800 3500 
L 1894 763 
L 2988 3500 
L 3597 3500 
L 2059 -325 
z
" transform="scale(0.015625)"/>
      </defs>
      <use xlink:href="#DejaVuSans-64"/>
      <use xlink:href="#DejaVuSans-65" x="63.476562"/>
      <use xlink:href="#DejaVuSans-6e" x="125"/>
      <use xlink:href="#DejaVuSans-73" x="188.378906"/>
      <use xlink:href="#DejaVuSans-69" x="240.478516"/>
      <use xlink:href="#DejaVuSans-74" x="268.261719"/>
      <use xlink:href="#DejaVuSans-79" x="307.470703"/>
     </g>
    </g>
   </g>
   <g id="line2d_13">
    <path d="M 115.363636 67.81079 
L 141.377622 67.84172 
L 167.391608 69.153034 
L 193.40559 72.088081 
L 219.419579 78.217347 
L 245.433569 89.981235 
L 264.944042 110.099489 
L 277.951044 125.502657 
L 287.706281 142.338191 
L 294.209782 151.382749 
L 299.087415 159.878265 
L 302.339151 164.110855 
L 305.590916 168.136254 
L 308.842652 172.135806 
L 312.094403 176.109998 
L 315.346139 180.053116 
L 318.597904 183.95867 
L 321.84964 187.819615 
L 325.101405 191.628324 
L 328.353141 195.376003 
L 331.604906 199.052521 
L 334.856642 202.645225 
L 338.108392 206.13775 
L 341.360128 209.508086 
L 344.611893 212.72545 
L 347.863629 215.745968 
L 351.115394 218.507448 
L 354.36713 220.924652 
L 357.618895 222.892543 
L 360.870631 224.31286 
L 364.122396 225.159 
L 367.374132 225.546922 
L 370.625868 225.706871 
L 375.503501 225.892234 
L 382.007002 226.123894 
L 386.884606 226.284095 
L 391.762239 226.649513 
L 396.639843 226.916032 
L 401.517476 227.56694 
L 406.395109 228.073904 
L 409.646845 228.868998 
L 412.89858 230.042444 
L 416.150346 231.645538 
L 419.402081 233.722332 
L 422.653817 236.329875 
L 425.905553 239.587622 
L 429.157348 244.069941 
L 434.034951 252.931163 
L 440.538452 262.045963 
L 447.041954 270.55579 
L 453.545455 277.657367 
L 458.423088 281.684181 
L 463.300691 286.920192 
L 468.178325 289.738918 
L 473.055928 293.234984 
L 479.559429 295.62133 
L 484.437062 296.778522 
L 489.314666 298.036529 
L 494.192329 298.607661 
L 499.069932 299.194329 
L 505.573433 299.521861 
L 510.451067 299.652222 
L 515.32867 299.789654 
L 520.206303 299.853492 
L 523.458039 299.939766 
L 526.709775 300.104474 
L 529.961511 300.436705 
L 533.213305 301.084904 
L 536.465041 302.301027 
L 539.716777 304.467146 
L 542.968513 308.019886 
L 546.220278 313.141789 
L 549.472014 319.248101 
L 552.72375 324.895953 
L 555.975485 328.609124 
L 560.853148 330.737702 
L 567.35662 331.251399 
L 577.111886 331.4538 
L 590.118888 331.515281 
L 609.629362 331.543327 
" clip-path="url(#p662d47f2b7)" style="fill: none; stroke: #1f77b4; stroke-width: 1.5; stroke-linecap: square"/>
    <defs>
     <path id="mb0349b8c96" d="M 0 1.5 
C 0.397805 1.5 0.77937 1.341951 1.06066 1.06066 
C 1.341951 0.77937 1.5 0.397805 1.5 0 
C 1.5 -0.397805 1.341951 -0.77937 1.06066 -1.06066 
C 0.77937 -1.341951 0.397805 -1.5 0 -1.5 
C -0.397805 -1.5 -0.77937 -1.341951 -1.06066 -1.06066 
C -1.341951 -0.77937 -1.5 -0.397805 -1.5 0 
C -1.5 0.397805 -1.341951 0.77937 -1.06066 1.06066 
C -0.77937 1.341951 -0.397805 1.5 0 1.5 
z
" style="stroke: #1f77b4"/>
    </defs>
    <g clip-path="url(#p662d47f2b7)">
     <use xlink:href="#mb0349b8c96" x="115.363636" y="67.81079" style="fill: #1f77b4; stroke: #1f77b4"/>
     <use xlink:href="#mb0349b8c96" x="141.377622" y="67.84172" style="fill: #1f77b4; stroke: #1f77b4"/>
     <use xlink:href="#mb0349b8c96" x="167.391608" y="69.153034" style="fill: #1f77b4; stroke: #1f77b4"/>
     <use xlink:href="#mb0349b8c96" x="193.40559" y="72.088081" style="fill: #1f77b4; stroke: #1f77b4"/>
     <use xlink:href="#mb0349b8c96" x="219.419579" y="78.217347" style="fill: #1f77b4; stroke: #1f77b4"/>
     <use xlink:href="#mb0349b8c96" x="245.433569" y="89.981235" style="fill: #1f77b4; stroke: #1f77b4"/>
     <use xlink:href="#mb0349b8c96" x="264.944042" y="110.099489" style="fill: #1f77b4; stroke: #1f77b4"/>
     <use xlink:href="#mb0349b8c96" x="277.951044" y="125.502657" style="fill: #1f77b4; stroke: #1f77b4"/>
     <use xlink:href="#mb0349b8c96" x="287.706281" y="142.338191" style="fill: #1f77b4; stroke: #1f77b4"/>
     <use xlink:href="#mb0349b8c96" x="294.209782" y="151.382749" style="fill: #1f77b4; stroke: #1f77b4"/>
     <use xlink:href="#mb0349b8c96" x="299.087415" y="159.878265" style="fill: #1f77b4; stroke: #1f77b4"/>
     <use xlink:href="#mb0349b8c96" x="302.339151" y="164.110855" style="fill: #1f77b4; stroke: #1f77b4"/>
     <use xlink:href="#mb0349b8c96" x="305.590916" y="168.136254" style="fill: #1f77b4; stroke: #1f77b4"/>
     <use xlink:href="#mb0349b8c96" x="308.842652" y="172.135806" style="fill: #1f77b4; stroke: #1f77b4"/>
     <use xlink:href="#mb0349b8c96" x="312.094403" y="176.109998" style="fill: #1f77b4; stroke: #1f77b4"/>
     <use xlink:href="#mb0349b8c96" x="315.346139" y="180.053116" style="fill: #1f77b4; stroke: #1f77b4"/>
     <use xlink:href="#mb0349b8c96" x="318.597904" y="183.95867" style="fill: #1f77b4; stroke: #1f77b4"/>
     <use xlink:href="#mb0349b8c96" x="321.84964" y="187.819615" style="fill: #1f77b4; stroke: #1f77b4"/>
     <use xlink:href="#mb0349b8c96" x="325.101405" y="191.628324" style="fill: #1f77b4; stroke: #1f77b4"/>
     <use xlink:href="#mb0349b8c96" x="328.353141" y="195.376003" style="fill: #1f77b4; stroke: #1f77b4"/>
     <use xlink:href="#mb0349b8c96" x="331.604906" y="199.052521" style="fill: #1f77b4; stroke: #1f77b4"/>
     <use xlink:href="#mb0349b8c96" x="334.856642" y="202.645225" style="fill: #1f77b4; stroke: #1f77b4"/>
     <use xlink:href="#mb0349b8c96" x="338.108392" y="206.13775" style="fill: #1f77b4; stroke: #1f77b4"/>
     <use xlink:href="#mb0349b8c96" x="341.360128" y="209.508086" style="fill: #1f77b4; stroke: #1f77b4"/>
     <use xlink:href="#mb0349b8c96" x="344.611893" y="212.72545" style="fill: #1f77b4; stroke: #1f77b4"/>
     <use xlink:href="#mb0349b8c96" x="347.863629" y="215.745968" style="fill: #1f77b4; stroke: #1f77b4"/>
     <use xlink:href="#mb0349b8c96" x="351.115394" y="218.507448" style="fill: #1f77b4; stroke: #1f77b4"/>
     <use xlink:href="#mb0349b8c96" x="354.36713" y="220.924652" style="fill: #1f77b4; stroke: #1f77b4"/>
     <use xlink:href="#mb0349b8c96" x="357.618895" y="222.892543" style="fill: #1f77b4; stroke: #1f77b4"/>
     <use xlink:href="#mb0349b8c96" x="360.870631" y="224.31286" style="fill: #1f77b4; stroke: #1f77b4"/>
     <use xlink:href="#mb0349b8c96" x="364.122396" y="225.159" style="fill: #1f77b4; stroke: #1f77b4"/>
     <use xlink:href="#mb0349b8c96" x="367.374132" y="225.546922" style="fill: #1f77b4; stroke: #1f77b4"/>
     <use xlink:href="#mb0349b8c96" x="370.625868" y="225.706871" style="fill: #1f77b4; stroke: #1f77b4"/>
     <use xlink:href="#mb0349b8c96" x="375.503501" y="225.892234" style="fill: #1f77b4; stroke: #1f77b4"/>
     <use xlink:href="#mb0349b8c96" x="382.007002" y="226.123894" style="fill: #1f77b4; stroke: #1f77b4"/>
     <use xlink:href="#mb0349b8c96" x="386.884606" y="226.284095" style="fill: #1f77b4; stroke: #1f77b4"/>
     <use xlink:href="#mb0349b8c96" x="391.762239" y="226.649513" style="fill: #1f77b4; stroke: #1f77b4"/>
     <use xlink:href="#mb0349b8c96" x="396.639843" y="226.916032" style="fill: #1f77b4; stroke: #1f77b4"/>
     <use xlink:href="#mb0349b8c96" x="401.517476" y="227.56694" style="fill: #1f77b4; stroke: #1f77b4"/>
     <use xlink:href="#mb0349b8c96" x="406.395109" y="228.073904" style="fill: #1f77b4; stroke: #1f77b4"/>
     <use xlink:href="#mb0349b8c96" x="409.646845" y="228.868998" style="fill: #1f77b4; stroke: #1f77b4"/>
     <use xlink:href="#mb0349b8c96" x="412.89858" y="230.042444" style="fill: #1f77b4; stroke: #1f77b4"/>
     <use xlink:href="#mb0349b8c96" x="416.150346" y="231.645538" style="fill: #1f77b4; stroke: #1f77b4"/>
     <use xlink:href="#mb0349b8c96" x="419.402081" y="233.722332" style="fill: #1f77b4; stroke: #1f77b4"/>
     <use xlink:href="#mb0349b8c96" x="422.653817" y="236.329875" style="fill: #1f77b4; stroke: #1f77b4"/>
     <use xlink:href="#mb0349b8c96" x="425.905553" y="239.587622" style="fill: #1f77b4; stroke: #1f77b4"/>
     <use xlink:href="#mb0349b8c96" x="429.157348" y="244.069941" style="fill: #1f77b4; stroke: #1f77b4"/>
     <use xlink:href="#mb0349b8c96" x="434.034951" y="252.931163" style="fill: #1f77b4; stroke: #1f77b4"/>
     <use xlink:href="#mb0349b8c96" x="440.538452" y="262.045963" style="fill: #1f77b4; stroke: #1f77b4"/>
     <use xlink:href="#mb0349b8c96" x="447.041954" y="270.55579" style="fill: #1f77b4; stroke: #1f77b4"/>
     <use xlink:href="#mb0349b8c96" x="453.545455" y="277.657367" style="fill: #1f77b4; stroke: #1f77b4"/>
     <use xlink:href="#mb0349b8c96" x="458.423088" y="281.684181" style="fill: #1f77b4; stroke: #1f77b4"/>
     <use xlink:href="#mb0349b8c96" x="463.300691" y="286.920192" style="fill: #1f77b4; stroke: #1f77b4"/>
     <use xlink:href="#mb0349b8c96" x="468.178325" y="289.738918" style="fill: #1f77b4; stroke: #1f77b4"/>
     <use xlink:href="#mb0349b8c96" x="473.055928" y="293.234984" style="fill: #1f77b4; stroke: #1f77b4"/>
     <use xlink:href="#mb0349b8c96" x="479.559429" y="295.62133" style="fill: #1f77b4; stroke: #1f77b4"/>
     <use xlink:href="#mb0349b8c96" x="484.437062" y="296.778522" style="fill: #1f77b4; stroke: #1f77b4"/>
     <use xlink:href="#mb0349b8c96" x="489.314666" y="298.036529" style="fill: #1f77b4; stroke: #1f77b4"/>
     <use xlink:href="#mb0349b8c96" x="494.192329" y="298.607661" style="fill: #1f77b4; stroke: #1f77b4"/>
     <use xlink:href="#mb0349b8c96" x="499.069932" y="299.194329" style="fill: #1f77b4; stroke: #1f77b4"/>
     <use xlink:href="#mb0349b8c96" x="505.573433" y="299.521861" style="fill: #1f77b4; stroke: #1f77b4"/>
     <use xlink:href="#mb0349b8c96" x="510.451067" y="299.652222" style="fill: #1f77b4; stroke: #1f77b4"/>
     <use xlink:href="#mb0349b8c96" x="515.32867" y="299.789654" style="fill: #1f77b4; stroke: #1f77b4"/>
     <use xlink:href="#mb0349b8c96" x="520.206303" y="299.853492" style="fill: #1f77b4; stroke: #1f77b4"/>
     <use xlink:href="#mb0349b8c96" x="523.458039" y="299.939766" style="fill: #1f77b4; stroke: #1f77b4"/>
     <use xlink:href="#mb0349b8c96" x="526.709775" y="300.104474" style="fill: #1f77b4; stroke: #1f77b4"/>
     <use xlink:href="#mb0349b8c96" x="529.961511" y="300.436705" style="fill: #1f77b4; stroke: #1f77b4"/>
     <use xlink:href="#mb0349b8c96" x="533.213305" y="301.084904" style="fill: #1f77b4; stroke: #1f77b4"/>
     <use xlink:href="#mb0349b8c96" x="536.465041" y="302.301027" style="fill: #1f77b4; stroke: #1f77b4"/>
     <use xlink:href="#mb0349b8c96" x="539.716777" y="304.467146" style="fill: #1f77b4; stroke: #1f77b4"/>
     <use xlink:href="#mb0349b8c96" x="542.968513" y="308.019886" style="fill: #1f77b4; stroke: #1f77b4"/>
     <use xlink:href="#mb0349b8c96" x="546.220278" y="313.141789" style="fill: #1f77b4; stroke: #1f77b4"/>
     <use xlink:href="#mb0349b8c96" x="549.472014" y="319.248101" style="fill: #1f77b4; stroke: #1f77b4"/>
     <use xlink:href="#mb0349b8c96" x="552.72375" y="324.895953" style="fill: #1f77b4; stroke: #1f77b4"/>
     <use xlink:href="#mb0349b8c96" x="555.975485" y="328.609124" style="fill: #1f77b4; stroke: #1f77b4"/>
     <use xlink:href="#mb0349b8c96" x="560.853148" y="330.737702" style="fill: #1f77b4; stroke: #1f77b4"/>
     <use xlink:href="#mb0349b8c96" x="567.35662" y="331.251399" style="fill: #1f77b4; stroke: #1f77b4"/>
     <use xlink:href="#mb0349b8c96" x="577.111886" y="331.4538" style="fill: #1f77b4; stroke: #1f77b4"/>
     <use xlink:href="#mb0349b8c96" x="590.118888" y="331.515281" style="fill: #1f77b4; stroke: #1f77b4"/>
     <use xlink:href="#mb0349b8c96" x="609.629362" y="331.543327" style="fill: #1f77b4; stroke: #1f77b4"/>
    </g>
   </g>
   <g id="LineCollection_1">
    <path d="M 128.370629 369.36 
L 128.370629 66.96 
" clip-path="url(#p662d47f2b7)" style="fill: none; stroke: #000000; stroke-opacity: 0.1; stroke-width: 1.5"/>
    <path d="M 154.384613 369.36 
L 154.384613 66.96 
" clip-path="url(#p662d47f2b7)" style="fill: none; stroke: #000000; stroke-opacity: 0.1; stroke-width: 1.5"/>
    <path d="M 180.398603 369.36 
L 180.398603 66.96 
" clip-path="url(#p662d47f2b7)" style="fill: none; stroke: #000000; stroke-opacity: 0.1; stroke-width: 1.5"/>
    <path d="M 206.412585 369.36 
L 206.412585 66.96 
" clip-path="url(#p662d47f2b7)" style="fill: none; stroke: #000000; stroke-opacity: 0.1; stroke-width: 1.5"/>
    <path d="M 232.426574 369.36 
L 232.426574 66.96 
" clip-path="url(#p662d47f2b7)" style="fill: none; stroke: #000000; stroke-opacity: 0.1; stroke-width: 1.5"/>
    <path d="M 258.440556 369.36 
L 258.440556 66.96 
" clip-path="url(#p662d47f2b7)" style="fill: none; stroke: #000000; stroke-opacity: 0.1; stroke-width: 1.5"/>
    <path d="M 271.447543 369.36 
L 271.447543 66.96 
" clip-path="url(#p662d47f2b7)" style="fill: none; stroke: #000000; stroke-opacity: 0.1; stroke-width: 1.5"/>
    <path d="M 284.454545 369.36 
L 284.454545 66.96 
" clip-path="url(#p662d47f2b7)" style="fill: none; stroke: #000000; stroke-opacity: 0.1; stroke-width: 1.5"/>
    <path d="M 290.958032 369.36 
L 290.958032 66.96 
" clip-path="url(#p662d47f2b7)" style="fill: none; stroke: #000000; stroke-opacity: 0.1; stroke-width: 1.5"/>
    <path d="M 297.461533 369.36 
L 297.461533 66.96 
" clip-path="url(#p662d47f2b7)" style="fill: none; stroke: #000000; stroke-opacity: 0.1; stroke-width: 1.5"/>
    <path d="M 300.713283 369.36 
L 300.713283 66.96 
" clip-path="url(#p662d47f2b7)" style="fill: none; stroke: #000000; stroke-opacity: 0.1; stroke-width: 1.5"/>
    <path d="M 303.965019 369.36 
L 303.965019 66.96 
" clip-path="url(#p662d47f2b7)" style="fill: none; stroke: #000000; stroke-opacity: 0.1; stroke-width: 1.5"/>
    <path d="M 307.216784 369.36 
L 307.216784 66.96 
" clip-path="url(#p662d47f2b7)" style="fill: none; stroke: #000000; stroke-opacity: 0.1; stroke-width: 1.5"/>
    <path d="M 310.46852 369.36 
L 310.46852 66.96 
" clip-path="url(#p662d47f2b7)" style="fill: none; stroke: #000000; stroke-opacity: 0.1; stroke-width: 1.5"/>
    <path d="M 313.720271 369.36 
L 313.720271 66.96 
" clip-path="url(#p662d47f2b7)" style="fill: none; stroke: #000000; stroke-opacity: 0.1; stroke-width: 1.5"/>
    <path d="M 316.972006 369.36 
L 316.972006 66.96 
" clip-path="url(#p662d47f2b7)" style="fill: none; stroke: #000000; stroke-opacity: 0.1; stroke-width: 1.5"/>
    <path d="M 320.223772 369.36 
L 320.223772 66.96 
" clip-path="url(#p662d47f2b7)" style="fill: none; stroke: #000000; stroke-opacity: 0.1; stroke-width: 1.5"/>
    <path d="M 323.475507 369.36 
L 323.475507 66.96 
" clip-path="url(#p662d47f2b7)" style="fill: none; stroke: #000000; stroke-opacity: 0.1; stroke-width: 1.5"/>
    <path d="M 326.727273 369.36 
L 326.727273 66.96 
" clip-path="url(#p662d47f2b7)" style="fill: none; stroke: #000000; stroke-opacity: 0.1; stroke-width: 1.5"/>
    <path d="M 329.979009 369.36 
L 329.979009 66.96 
" clip-path="url(#p662d47f2b7)" style="fill: none; stroke: #000000; stroke-opacity: 0.1; stroke-width: 1.5"/>
    <path d="M 333.230774 369.36 
L 333.230774 66.96 
" clip-path="url(#p662d47f2b7)" style="fill: none; stroke: #000000; stroke-opacity: 0.1; stroke-width: 1.5"/>
    <path d="M 336.48251 369.36 
L 336.48251 66.96 
" clip-path="url(#p662d47f2b7)" style="fill: none; stroke: #000000; stroke-opacity: 0.1; stroke-width: 1.5"/>
    <path d="M 339.73426 369.36 
L 339.73426 66.96 
" clip-path="url(#p662d47f2b7)" style="fill: none; stroke: #000000; stroke-opacity: 0.1; stroke-width: 1.5"/>
    <path d="M 342.985996 369.36 
L 342.985996 66.96 
" clip-path="url(#p662d47f2b7)" style="fill: none; stroke: #000000; stroke-opacity: 0.1; stroke-width: 1.5"/>
    <path d="M 346.237761 369.36 
L 346.237761 66.96 
" clip-path="url(#p662d47f2b7)" style="fill: none; stroke: #000000; stroke-opacity: 0.1; stroke-width: 1.5"/>
    <path d="M 349.489497 369.36 
L 349.489497 66.96 
" clip-path="url(#p662d47f2b7)" style="fill: none; stroke: #000000; stroke-opacity: 0.1; stroke-width: 1.5"/>
    <path d="M 352.741262 369.36 
L 352.741262 66.96 
" clip-path="url(#p662d47f2b7)" style="fill: none; stroke: #000000; stroke-opacity: 0.1; stroke-width: 1.5"/>
    <path d="M 355.992998 369.36 
L 355.992998 66.96 
" clip-path="url(#p662d47f2b7)" style="fill: none; stroke: #000000; stroke-opacity: 0.1; stroke-width: 1.5"/>
    <path d="M 359.244763 369.36 
L 359.244763 66.96 
" clip-path="url(#p662d47f2b7)" style="fill: none; stroke: #000000; stroke-opacity: 0.1; stroke-width: 1.5"/>
    <path d="M 362.496499 369.36 
L 362.496499 66.96 
" clip-path="url(#p662d47f2b7)" style="fill: none; stroke: #000000; stroke-opacity: 0.1; stroke-width: 1.5"/>
    <path d="M 365.748264 369.36 
L 365.748264 66.96 
" clip-path="url(#p662d47f2b7)" style="fill: none; stroke: #000000; stroke-opacity: 0.1; stroke-width: 1.5"/>
    <path d="M 369 369.36 
L 369 66.96 
" clip-path="url(#p662d47f2b7)" style="fill: none; stroke: #000000; stroke-opacity: 0.1; stroke-width: 1.5"/>
    <path d="M 372.251736 369.36 
L 372.251736 66.96 
" clip-path="url(#p662d47f2b7)" style="fill: none; stroke: #000000; stroke-opacity: 0.1; stroke-width: 1.5"/>
    <path d="M 378.755237 369.36 
L 378.755237 66.96 
" clip-path="url(#p662d47f2b7)" style="fill: none; stroke: #000000; stroke-opacity: 0.1; stroke-width: 1.5"/>
    <path d="M 385.258738 369.36 
L 385.258738 66.96 
" clip-path="url(#p662d47f2b7)" style="fill: none; stroke: #000000; stroke-opacity: 0.1; stroke-width: 1.5"/>
    <path d="M 388.510474 369.36 
L 388.510474 66.96 
" clip-path="url(#p662d47f2b7)" style="fill: none; stroke: #000000; stroke-opacity: 0.1; stroke-width: 1.5"/>
    <path d="M 395.013975 369.36 
L 395.013975 66.96 
" clip-path="url(#p662d47f2b7)" style="fill: none; stroke: #000000; stroke-opacity: 0.1; stroke-width: 1.5"/>
    <path d="M 398.26571 369.36 
L 398.26571 66.96 
" clip-path="url(#p662d47f2b7)" style="fill: none; stroke: #000000; stroke-opacity: 0.1; stroke-width: 1.5"/>
    <path d="M 404.769212 369.36 
L 404.769212 66.96 
" clip-path="url(#p662d47f2b7)" style="fill: none; stroke: #000000; stroke-opacity: 0.1; stroke-width: 1.5"/>
    <path d="M 408.020977 369.36 
L 408.020977 66.96 
" clip-path="url(#p662d47f2b7)" style="fill: none; stroke: #000000; stroke-opacity: 0.1; stroke-width: 1.5"/>
    <path d="M 411.272713 369.36 
L 411.272713 66.96 
" clip-path="url(#p662d47f2b7)" style="fill: none; stroke: #000000; stroke-opacity: 0.1; stroke-width: 1.5"/>
    <path d="M 414.524448 369.36 
L 414.524448 66.96 
" clip-path="url(#p662d47f2b7)" style="fill: none; stroke: #000000; stroke-opacity: 0.1; stroke-width: 1.5"/>
    <path d="M 417.776214 369.36 
L 417.776214 66.96 
" clip-path="url(#p662d47f2b7)" style="fill: none; stroke: #000000; stroke-opacity: 0.1; stroke-width: 1.5"/>
    <path d="M 421.027949 369.36 
L 421.027949 66.96 
" clip-path="url(#p662d47f2b7)" style="fill: none; stroke: #000000; stroke-opacity: 0.1; stroke-width: 1.5"/>
    <path d="M 424.279685 369.36 
L 424.279685 66.96 
" clip-path="url(#p662d47f2b7)" style="fill: none; stroke: #000000; stroke-opacity: 0.1; stroke-width: 1.5"/>
    <path d="M 427.531421 369.36 
L 427.531421 66.96 
" clip-path="url(#p662d47f2b7)" style="fill: none; stroke: #000000; stroke-opacity: 0.1; stroke-width: 1.5"/>
    <path d="M 430.783216 369.36 
L 430.783216 66.96 
" clip-path="url(#p662d47f2b7)" style="fill: none; stroke: #000000; stroke-opacity: 0.1; stroke-width: 1.5"/>
    <path d="M 437.286687 369.36 
L 437.286687 66.96 
" clip-path="url(#p662d47f2b7)" style="fill: none; stroke: #000000; stroke-opacity: 0.1; stroke-width: 1.5"/>
    <path d="M 443.790188 369.36 
L 443.790188 66.96 
" clip-path="url(#p662d47f2b7)" style="fill: none; stroke: #000000; stroke-opacity: 0.1; stroke-width: 1.5"/>
    <path d="M 450.293689 369.36 
L 450.293689 66.96 
" clip-path="url(#p662d47f2b7)" style="fill: none; stroke: #000000; stroke-opacity: 0.1; stroke-width: 1.5"/>
    <path d="M 456.79719 369.36 
L 456.79719 66.96 
" clip-path="url(#p662d47f2b7)" style="fill: none; stroke: #000000; stroke-opacity: 0.1; stroke-width: 1.5"/>
    <path d="M 460.048956 369.36 
L 460.048956 66.96 
" clip-path="url(#p662d47f2b7)" style="fill: none; stroke: #000000; stroke-opacity: 0.1; stroke-width: 1.5"/>
    <path d="M 466.552427 369.36 
L 466.552427 66.96 
" clip-path="url(#p662d47f2b7)" style="fill: none; stroke: #000000; stroke-opacity: 0.1; stroke-width: 1.5"/>
    <path d="M 469.804192 369.36 
L 469.804192 66.96 
" clip-path="url(#p662d47f2b7)" style="fill: none; stroke: #000000; stroke-opacity: 0.1; stroke-width: 1.5"/>
    <path d="M 476.307664 369.36 
L 476.307664 66.96 
" clip-path="url(#p662d47f2b7)" style="fill: none; stroke: #000000; stroke-opacity: 0.1; stroke-width: 1.5"/>
    <path d="M 482.811165 369.36 
L 482.811165 66.96 
" clip-path="url(#p662d47f2b7)" style="fill: none; stroke: #000000; stroke-opacity: 0.1; stroke-width: 1.5"/>
    <path d="M 486.06293 369.36 
L 486.06293 66.96 
" clip-path="url(#p662d47f2b7)" style="fill: none; stroke: #000000; stroke-opacity: 0.1; stroke-width: 1.5"/>
    <path d="M 492.566402 369.36 
L 492.566402 66.96 
" clip-path="url(#p662d47f2b7)" style="fill: none; stroke: #000000; stroke-opacity: 0.1; stroke-width: 1.5"/>
    <path d="M 495.818197 369.36 
L 495.818197 66.96 
" clip-path="url(#p662d47f2b7)" style="fill: none; stroke: #000000; stroke-opacity: 0.1; stroke-width: 1.5"/>
    <path d="M 502.321668 369.36 
L 502.321668 66.96 
" clip-path="url(#p662d47f2b7)" style="fill: none; stroke: #000000; stroke-opacity: 0.1; stroke-width: 1.5"/>
    <path d="M 508.825169 369.36 
L 508.825169 66.96 
" clip-path="url(#p662d47f2b7)" style="fill: none; stroke: #000000; stroke-opacity: 0.1; stroke-width: 1.5"/>
    <path d="M 512.076934 369.36 
L 512.076934 66.96 
" clip-path="url(#p662d47f2b7)" style="fill: none; stroke: #000000; stroke-opacity: 0.1; stroke-width: 1.5"/>
    <path d="M 518.580406 369.36 
L 518.580406 66.96 
" clip-path="url(#p662d47f2b7)" style="fill: none; stroke: #000000; stroke-opacity: 0.1; stroke-width: 1.5"/>
    <path d="M 521.832171 369.36 
L 521.832171 66.96 
" clip-path="url(#p662d47f2b7)" style="fill: none; stroke: #000000; stroke-opacity: 0.1; stroke-width: 1.5"/>
    <path d="M 525.083907 369.36 
L 525.083907 66.96 
" clip-path="url(#p662d47f2b7)" style="fill: none; stroke: #000000; stroke-opacity: 0.1; stroke-width: 1.5"/>
    <path d="M 528.335643 369.36 
L 528.335643 66.96 
" clip-path="url(#p662d47f2b7)" style="fill: none; stroke: #000000; stroke-opacity: 0.1; stroke-width: 1.5"/>
    <path d="M 531.587379 369.36 
L 531.587379 66.96 
" clip-path="url(#p662d47f2b7)" style="fill: none; stroke: #000000; stroke-opacity: 0.1; stroke-width: 1.5"/>
    <path d="M 534.839173 369.36 
L 534.839173 66.96 
" clip-path="url(#p662d47f2b7)" style="fill: none; stroke: #000000; stroke-opacity: 0.1; stroke-width: 1.5"/>
    <path d="M 538.090909 369.36 
L 538.090909 66.96 
" clip-path="url(#p662d47f2b7)" style="fill: none; stroke: #000000; stroke-opacity: 0.1; stroke-width: 1.5"/>
    <path d="M 541.342645 369.36 
L 541.342645 66.96 
" clip-path="url(#p662d47f2b7)" style="fill: none; stroke: #000000; stroke-opacity: 0.1; stroke-width: 1.5"/>
    <path d="M 544.594381 369.36 
L 544.594381 66.96 
" clip-path="url(#p662d47f2b7)" style="fill: none; stroke: #000000; stroke-opacity: 0.1; stroke-width: 1.5"/>
    <path d="M 547.846146 369.36 
L 547.846146 66.96 
" clip-path="url(#p662d47f2b7)" style="fill: none; stroke: #000000; stroke-opacity: 0.1; stroke-width: 1.5"/>
    <path d="M 551.097882 369.36 
L 551.097882 66.96 
" clip-path="url(#p662d47f2b7)" style="fill: none; stroke: #000000; stroke-opacity: 0.1; stroke-width: 1.5"/>
    <path d="M 554.349617 369.36 
L 554.349617 66.96 
" clip-path="url(#p662d47f2b7)" style="fill: none; stroke: #000000; stroke-opacity: 0.1; stroke-width: 1.5"/>
    <path d="M 557.601353 369.36 
L 557.601353 66.96 
" clip-path="url(#p662d47f2b7)" style="fill: none; stroke: #000000; stroke-opacity: 0.1; stroke-width: 1.5"/>
    <path d="M 564.104884 369.36 
L 564.104884 66.96 
" clip-path="url(#p662d47f2b7)" style="fill: none; stroke: #000000; stroke-opacity: 0.1; stroke-width: 1.5"/>
    <path d="M 570.608355 369.36 
L 570.608355 66.96 
" clip-path="url(#p662d47f2b7)" style="fill: none; stroke: #000000; stroke-opacity: 0.1; stroke-width: 1.5"/>
    <path d="M 583.615387 369.36 
L 583.615387 66.96 
" clip-path="url(#p662d47f2b7)" style="fill: none; stroke: #000000; stroke-opacity: 0.1; stroke-width: 1.5"/>
    <path d="M 596.622389 369.36 
L 596.622389 66.96 
" clip-path="url(#p662d47f2b7)" style="fill: none; stroke: #000000; stroke-opacity: 0.1; stroke-width: 1.5"/>
    <path d="M 622.636364 369.36 
L 622.636364 66.96 
" clip-path="url(#p662d47f2b7)" style="fill: none; stroke: #000000; stroke-opacity: 0.1; stroke-width: 1.5"/>
   </g>
   <g id="patch_3">
    <path d="M 90 384.48 
L 90 51.84 
" style="fill: none; stroke: #000000; stroke-width: 0.8; stroke-linejoin: miter; stroke-linecap: square"/>
   </g>
   <g id="patch_4">
    <path d="M 648 384.48 
L 648 51.84 
" style="fill: none; stroke: #000000; stroke-width: 0.8; stroke-linejoin: miter; stroke-linecap: square"/>
   </g>
   <g id="patch_5">
    <path d="M 90 384.48 
L 648 384.48 
" style="fill: none; stroke: #000000; stroke-width: 0.8; stroke-linejoin: miter; stroke-linecap: square"/>
   </g>
   <g id="patch_6">
    <path d="M 90 51.84 
L 648 51.84 
" style="fill: none; stroke: #000000; stroke-width: 0.8; stroke-linejoin: miter; stroke-linecap: square"/>
   </g>
   <g id="text_15">
    <!-- simple adaptive mesh refinement -->
    <g transform="translate(267.788437 45.84) scale(0.12 -0.12)">
     <defs>
      <path id="DejaVuSans-6d" d="M 3328 2828 
Q 3544 3216 3844 3400 
Q 4144 3584 4550 3584 
Q 5097 3584 5394 3201 
Q 5691 2819 5691 2113 
L 5691 0 
L 5113 0 
L 5113 2094 
Q 5113 2597 4934 2840 
Q 4756 3084 4391 3084 
Q 3944 3084 3684 2787 
Q 3425 2491 3425 1978 
L 3425 0 
L 2847 0 
L 2847 2094 
Q 2847 2600 2669 2842 
Q 2491 3084 2119 3084 
Q 1678 3084 1418 2786 
Q 1159 2488 1159 1978 
L 1159 0 
L 581 0 
L 581 3500 
L 1159 3500 
L 1159 2956 
Q 1356 3278 1631 3431 
Q 1906 3584 2284 3584 
Q 2666 3584 2933 3390 
Q 3200 3197 3328 2828 
z
" transform="scale(0.015625)"/>
      <path id="DejaVuSans-70" d="M 1159 525 
L 1159 -1331 
L 581 -1331 
L 581 3500 
L 1159 3500 
L 1159 2969 
Q 1341 3281 1617 3432 
Q 1894 3584 2278 3584 
Q 2916 3584 3314 3078 
Q 3713 2572 3713 1747 
Q 3713 922 3314 415 
Q 2916 -91 2278 -91 
Q 1894 -91 1617 61 
Q 1341 213 1159 525 
z
M 3116 1747 
Q 3116 2381 2855 2742 
Q 2594 3103 2138 3103 
Q 1681 3103 1420 2742 
Q 1159 2381 1159 1747 
Q 1159 1113 1420 752 
Q 1681 391 2138 391 
Q 2594 391 2855 752 
Q 3116 1113 3116 1747 
z
" transform="scale(0.015625)"/>
      <path id="DejaVuSans-6c" d="M 603 4863 
L 1178 4863 
L 1178 0 
L 603 0 
L 603 4863 
z
" transform="scale(0.015625)"/>
      <path id="DejaVuSans-20" transform="scale(0.015625)"/>
      <path id="DejaVuSans-61" d="M 2194 1759 
Q 1497 1759 1228 1600 
Q 959 1441 959 1056 
Q 959 750 1161 570 
Q 1363 391 1709 391 
Q 2188 391 2477 730 
Q 2766 1069 2766 1631 
L 2766 1759 
L 2194 1759 
z
M 3341 1997 
L 3341 0 
L 2766 0 
L 2766 531 
Q 2569 213 2275 61 
Q 1981 -91 1556 -91 
Q 1019 -91 701 211 
Q 384 513 384 1019 
Q 384 1609 779 1909 
Q 1175 2209 1959 2209 
L 2766 2209 
L 2766 2266 
Q 2766 2663 2505 2880 
Q 2244 3097 1772 3097 
Q 1472 3097 1187 3025 
Q 903 2953 641 2809 
L 641 3341 
Q 956 3463 1253 3523 
Q 1550 3584 1831 3584 
Q 2591 3584 2966 3190 
Q 3341 2797 3341 1997 
z
" transform="scale(0.015625)"/>
      <path id="DejaVuSans-76" d="M 191 3500 
L 800 3500 
L 1894 563 
L 2988 3500 
L 3597 3500 
L 2284 0 
L 1503 0 
L 191 3500 
z
" transform="scale(0.015625)"/>
      <path id="DejaVuSans-68" d="M 3513 2113 
L 3513 0 
L 2938 0 
L 2938 2094 
Q 2938 2591 2744 2837 
Q 2550 3084 2163 3084 
Q 1697 3084 1428 2787 
Q 1159 2491 1159 1978 
L 1159 0 
L 581 0 
L 581 4863 
L 1159 4863 
L 1159 2956 
Q 1366 3272 1645 3428 
Q 1925 3584 2291 3584 
Q 2894 3584 3203 3211 
Q 3513 2838 3513 2113 
z
" transform="scale(0.015625)"/>
      <path id="DejaVuSans-72" d="M 2631 2963 
Q 2534 3019 2420 3045 
Q 2306 3072 2169 3072 
Q 1681 3072 1420 2755 
Q 1159 2438 1159 1844 
L 1159 0 
L 581 0 
L 581 3500 
L 1159 3500 
L 1159 2956 
Q 1341 3275 1631 3429 
Q 1922 3584 2338 3584 
Q 2397 3584 2469 3576 
Q 2541 3569 2628 3553 
L 2631 2963 
z
" transform="scale(0.015625)"/>
      <path id="DejaVuSans-66" d="M 2375 4863 
L 2375 4384 
L 1825 4384 
Q 1516 4384 1395 4259 
Q 1275 4134 1275 3809 
L 1275 3500 
L 2222 3500 
L 2222 3053 
L 1275 3053 
L 1275 0 
L 697 0 
L 697 3053 
L 147 3053 
L 147 3500 
L 697 3500 
L 697 3744 
Q 697 4328 969 4595 
Q 1241 4863 1831 4863 
L 2375 4863 
z
" transform="scale(0.015625)"/>
     </defs>
     <use xlink:href="#DejaVuSans-73"/>
     <use xlink:href="#DejaVuSans-69" x="52.099609"/>
     <use xlink:href="#DejaVuSans-6d" x="79.882812"/>
     <use xlink:href="#DejaVuSans-70" x="177.294922"/>
     <use xlink:href="#DejaVuSans-6c" x="240.771484"/>
     <use xlink:href="#DejaVuSans-65" x="268.554688"/>
     <use xlink:href="#DejaVuSans-20" x="330.078125"/>
     <use xlink:href="#DejaVuSans-61" x="361.865234"/>
     <use xlink:href="#DejaVuSans-64" x="423.144531"/>
     <use xlink:href="#DejaVuSans-61" x="486.621094"/>
     <use xlink:href="#DejaVuSans-70" x="547.900391"/>
     <use xlink:href="#DejaVuSans-74" x="611.376953"/>
     <use xlink:href="#DejaVuSans-69" x="650.585938"/>
     <use xlink:href="#DejaVuSans-76" x="678.369141"/>
     <use xlink:href="#DejaVuSans-65" x="737.548828"/>
     <use xlink:href="#DejaVuSans-20" x="799.072266"/>
     <use xlink:href="#DejaVuSans-6d" x="830.859375"/>
     <use xlink:href="#DejaVuSans-65" x="928.271484"/>
     <use xlink:href="#DejaVuSans-73" x="989.794922"/>
     <use xlink:href="#DejaVuSans-68" x="1041.894531"/>
     <use xlink:href="#DejaVuSans-20" x="1105.273438"/>
     <use xlink:href="#DejaVuSans-72" x="1137.060547"/>
     <use xlink:href="#DejaVuSans-65" x="1175.923828"/>
     <use xlink:href="#DejaVuSans-66" x="1237.447266"/>
     <use xlink:href="#DejaVuSans-69" x="1272.652344"/>
     <use xlink:href="#DejaVuSans-6e" x="1300.435547"/>
     <use xlink:href="#DejaVuSans-65" x="1363.814453"/>
     <use xlink:href="#DejaVuSans-6d" x="1425.337891"/>
     <use xlink:href="#DejaVuSans-65" x="1522.75"/>
     <use xlink:href="#DejaVuSans-6e" x="1584.273438"/>
     <use xlink:href="#DejaVuSans-74" x="1647.652344"/>
    </g>
   </g>
  </g>
 </g>
 <defs>
  <clipPath id="p662d47f2b7">
   <rect x="90" y="51.84" width="558" height="332.64"/>
  </clipPath>
 </defs>
</svg>
