<?xml version="1.0" encoding="UTF-8" standalone="no"?>
<!DOCTYPE svg PUBLIC "-//W3C//DTD SVG 1.1//EN" "http://www.w3.org/Graphics/SVG/1.1/DTD/svg11.dtd">
<svg width="100%" height="100%" viewBox="0 0 851 336" version="1.1" xmlns="http://www.w3.org/2000/svg" xmlns:xlink="http://www.w3.org/1999/xlink" xml:space="preserve" xmlns:serif="http://www.serif.com/" style="fill-rule:evenodd;clip-rule:evenodd;stroke-linecap:round;stroke-linejoin:round;stroke-miterlimit:1.5;">
    <path d="M204.276,97.119L178.778,97.119L181.527,77.621L207.026,77.621L210.776,51.122C213.109,35.29 217.817,23.499 224.9,15.75C231.983,8 242.94,4.125 257.773,4.125C260.272,4.125 262.897,4.209 265.647,4.375C268.397,4.542 271.272,5.042 274.272,5.875L269.022,25.874C267.022,25.041 265.022,24.457 263.022,24.124C261.022,23.791 258.856,23.624 256.523,23.624C252.356,23.624 248.94,24.249 246.273,25.499C243.607,26.749 241.44,28.541 239.774,30.874C238.107,33.207 236.816,35.998 235.899,39.248C234.982,42.498 234.191,46.206 233.524,50.372L229.774,77.621L256.523,77.621L253.773,97.119L226.775,97.119L213.025,196.113L190.527,196.113L204.276,97.119Z" style="fill-rule:nonzero;"/>
    <path d="M336.518,46.623L299.77,76.621L288.021,59.872L343.017,19.124L364.266,19.124L339.517,196.113L315.519,196.113L336.518,46.623Z" style="fill-rule:nonzero;"/>
    <path d="M509.007,196.113L486.508,196.113L489.008,177.864L488.508,177.864C484.675,184.197 479.009,189.322 471.509,193.238C464.01,197.155 455.677,199.113 446.511,199.113C440.678,199.113 435.303,198.238 430.387,196.488C425.47,194.738 421.304,192.03 417.887,188.364C414.471,184.697 412.013,179.989 410.513,174.24C409.013,168.49 408.763,161.699 409.763,153.866L420.512,77.621L443.011,77.621L433.261,147.616C432.428,153.116 432.47,157.824 433.386,161.74C434.303,165.657 435.845,168.823 438.011,171.24C440.178,173.656 442.844,175.406 446.011,176.489C449.177,177.573 452.51,178.114 456.01,178.114C465.343,178.114 473.592,174.99 480.758,168.74C487.925,162.49 492.508,152.449 494.508,138.617L503.007,77.621L525.506,77.621L509.007,196.113Z" style="fill-rule:nonzero;"/>
    <path d="M561.253,77.621L583.752,77.621L567.253,196.113L544.754,196.113L561.253,77.621ZM562.003,35.123C562.67,30.624 564.836,26.749 568.503,23.499C572.169,20.249 576.252,18.624 580.752,18.624C585.252,18.624 588.918,20.249 591.751,23.499C594.585,26.749 595.668,30.624 595.001,35.123C594.335,39.623 592.168,43.498 588.502,46.748C584.835,49.997 580.752,51.622 576.252,51.622C571.753,51.622 568.086,49.997 565.253,46.748C562.42,43.498 561.337,39.623 562.003,35.123Z" style="fill-rule:nonzero;"/>
    <path d="M721.743,196.113L699.245,196.113L701.494,179.114L700.994,179.114C695.661,185.447 688.995,190.364 680.996,193.863C672.996,197.363 664.997,199.113 656.997,199.113C647.831,199.113 639.748,197.53 632.749,194.363C625.749,191.197 620.041,186.78 615.625,181.114C611.209,175.448 608.084,168.865 606.25,161.365C604.417,153.866 604.167,145.7 605.501,136.867C606.667,128.034 609.25,119.826 613.25,112.244C617.25,104.661 622.249,98.078 628.249,92.495C634.249,86.912 641.165,82.537 648.998,79.371C656.831,76.204 665.33,74.621 674.496,74.621C682.996,74.621 690.703,76.412 697.62,79.996C704.536,83.579 709.661,88.453 712.994,94.62L713.494,94.62L725.743,7.125L748.241,7.125L721.743,196.113ZM662.747,178.114C668.747,178.114 674.288,177.073 679.371,174.99C684.454,172.906 688.912,170.073 692.745,166.49C696.578,162.907 699.786,158.574 702.369,153.491C704.953,148.408 706.661,142.867 707.494,136.867C708.327,130.867 708.202,125.326 707.119,120.243C706.036,115.16 704.036,110.827 701.119,107.244C698.203,103.661 694.495,100.828 689.995,98.744C685.495,96.661 680.246,95.62 674.246,95.62C668.247,95.62 662.705,96.661 657.622,98.744C652.539,100.828 648.04,103.661 644.123,107.244C640.207,110.827 636.999,115.16 634.499,120.243C631.999,125.326 630.332,130.867 629.499,136.867C628.666,142.867 628.791,148.408 629.874,153.491C630.957,158.574 632.915,162.907 635.749,166.49C638.582,170.073 642.29,172.906 646.873,174.99C651.456,177.073 656.747,178.114 662.747,178.114Z" style="fill-rule:nonzero;"/>
    <path d="M830.986,107.369C828.82,104.036 825.945,101.244 822.362,98.994C818.779,96.745 814.154,95.62 808.488,95.62C803.155,95.62 798.363,96.745 794.114,98.994C789.864,101.244 787.489,104.536 786.989,108.869C786.489,112.369 787.197,115.202 789.114,117.368C791.03,119.535 793.447,121.285 796.363,122.618C799.28,123.951 802.405,124.951 805.738,125.618C809.071,126.284 811.987,126.868 814.487,127.368C819.154,128.534 823.487,129.951 827.486,131.617C831.486,133.284 834.861,135.45 837.611,138.117C840.361,140.783 842.319,144.033 843.485,147.866C844.652,151.699 844.902,156.366 844.235,161.865C843.235,168.532 841.027,174.24 837.611,178.989C834.194,183.739 829.986,187.614 824.987,190.614C819.987,193.613 814.529,195.78 808.613,197.113C802.696,198.446 796.822,199.113 790.989,199.113C781.156,199.113 772.782,197.613 765.865,194.613C758.949,191.613 753.075,186.114 748.241,178.114L766.99,164.115C770.157,167.782 773.823,171.031 777.99,173.865C782.156,176.698 787.489,178.114 793.989,178.114C799.822,178.114 805.405,176.906 810.738,174.49C816.07,172.073 819.154,168.282 819.987,163.115C820.487,159.782 819.862,157.032 818.112,154.866C816.362,152.699 814.112,150.991 811.362,149.741C808.613,148.491 805.613,147.491 802.363,146.741C799.113,145.991 796.322,145.366 793.989,144.866C789.322,143.7 784.906,142.367 780.739,140.867C776.573,139.367 772.99,137.367 769.99,134.867C766.99,132.367 764.782,129.201 763.366,125.368C761.949,121.535 761.657,116.785 762.491,111.119C763.324,104.952 765.365,99.578 768.615,94.995C771.865,90.412 775.823,86.62 780.489,83.62C785.156,80.621 790.322,78.371 795.988,76.871C801.655,75.371 807.238,74.621 812.737,74.621C820.737,74.621 828.195,76.121 835.111,79.121C842.027,82.12 847.152,87.12 850.485,94.12L830.986,107.369Z" style="fill-rule:nonzero;"/>
    <path d="M-0,0L167.377,0L56.994,196.074L28.297,196.074L-0,0ZM28.564,21.756L48.451,170.447L129.47,21.756L28.564,21.756Z" style="fill-rule:nonzero;"/>
    <circle cx="577.157" cy="34.358" r="21.532" style="fill:url(#_Radial1);"/>
    <clipPath id="_clip2">
        <rect id="tortoise-svgrepo-com.svg" x="213.581" y="152.438" width="182.767" height="182.767"/>
    </clipPath>
    <g clip-path="url(#_clip2)">
        <path d="M229.554,289.79C240.149,289.79 251.069,285.172 259.708,276.262C265.738,279.522 271.606,282.511 280.353,282.511C289.915,282.511 295.892,280.011 301.27,277.023C309.637,285.336 320.449,289.899 330.825,289.899C339.464,289.899 346.038,286.313 346.038,279.685C346.038,273.383 341.366,270.775 335.009,269.036C333.379,268.602 331.749,268.221 330.12,267.787C354.242,267.298 354.513,255.074 370.704,255.074C385.428,255.074 396.348,249.967 396.348,239.861C396.348,218.238 383.961,206.72 369.564,206.72C354.786,206.72 346.907,216.064 343.756,228.343C341.963,235.026 338.812,239.209 334.031,241.6L330.608,235.297C316.374,208.73 302.9,198.081 281.114,198.027C257.534,198.081 245.473,208.35 227.925,241.6C222.6,251.759 213.581,253.987 213.581,260.344C213.581,264.799 217.004,267.787 223.904,267.787L229.5,267.787C227.164,268.439 224.828,269.036 222.709,269.797C217.602,271.59 214.342,274.307 214.342,279.522C214.342,286.15 220.916,289.79 229.554,289.79ZM281.114,206.666C295.783,206.666 305.128,213.239 312.734,222.964C303.769,230.516 292.903,234.754 280.462,234.754C268.183,234.754 257.48,230.734 248.679,223.345C257.969,211.012 267.096,206.666 281.114,206.666ZM345.767,256.649C343.268,254.748 340.388,251.162 338.65,248.119C344.571,245.892 348.537,241.926 350.874,232.635C353.482,221.443 359.458,214.924 369.564,214.924C379.94,214.924 388.579,224.486 388.579,238.557C388.579,243.773 380.593,247.141 372.334,247.141C359.675,247.141 352.721,252.194 345.767,256.649ZM371.139,234.428C373.529,234.428 375.431,232.472 375.431,230.082C375.431,227.691 373.529,225.79 371.139,225.79C368.748,225.79 366.846,227.691 366.846,230.082C366.846,232.472 368.748,234.428 371.139,234.428ZM323.6,239.97C327.348,246.652 332.13,254.259 336.965,259.04C334.738,259.094 332.184,259.04 329.576,259.04C321.481,259.04 315.451,260.507 310.398,262.517C305.128,255.508 301.325,245.566 300.455,238.177C306.812,235.787 312.245,232.418 316.809,228.669C319.144,232.201 321.372,236.004 323.6,239.97ZM232.597,259.04C229.826,259.04 227.001,259.094 224.502,259.257L224.067,258.496C227.761,255.4 232.38,251.488 235.639,244.968C238.845,238.829 241.779,233.613 244.658,229.104C249.222,232.852 254.818,236.275 261.5,238.612C260.414,245.729 256.502,255.726 251.504,262.517C246.56,260.507 240.583,259.04 232.597,259.04ZM280.353,273.872C270.845,273.872 265.032,269.417 257.534,265.396C262.587,258.225 266.336,248.337 267.422,240.296C271.443,241.22 275.789,241.763 280.462,241.763C285.46,241.763 290.078,241.111 294.37,240.079C295.185,248.445 299.043,258.333 304.313,265.451C296.761,269.471 290.676,273.872 280.353,273.872ZM222.437,278.381C222.437,276.425 223.85,275.122 228.033,274.089C230.587,273.437 237.378,271.318 242.322,268.982C246.017,269.797 249.222,270.992 252.101,272.351C243.789,279.359 236.346,282.511 229.609,282.511C224.828,282.511 222.437,280.989 222.437,278.381ZM332.348,274.252C336.53,275.284 337.943,276.588 337.943,278.544C337.943,281.098 335.552,282.619 330.771,282.619C324.143,282.619 316.809,279.576 308.659,272.84C311.43,271.318 314.418,270.014 317.95,269.091C322.84,271.427 329.794,273.546 332.348,274.252Z" style="fill-rule:nonzero;"/>
    </g>
    <path d="M163.652,161.966L159.446,191.108L130.304,186.902L134.51,157.76L163.652,161.966Z" style="fill:rgb(42,171,228);"/>
    <path d="M168.032,131.618L163.826,160.759L134.684,156.554L138.89,127.412L168.032,131.618Z" style="fill:rgb(42,171,228);"/>
    <path d="M154.818,223.174L150.612,252.315L121.471,248.109L125.677,218.968L154.818,223.174Z" style="fill:rgb(42,171,228);"/>
    <path d="M59.934,240.944L89.076,245.149L84.87,274.291L55.729,270.085L59.934,240.944Z" style="fill:rgb(42,171,228);"/>
    <path d="M159.213,192.72L155.008,221.861L125.866,217.655L130.072,188.514L159.213,192.72Z" style="fill:rgb(42,171,228);"/>
    <path d="M64.456,210.395L93.598,214.601L89.392,243.742L60.251,239.537L64.456,210.395Z" style="fill:rgb(42,171,228);"/>
    <path d="M150.38,253.927L146.174,283.069L117.033,278.863L121.238,249.721L150.38,253.927Z" style="fill:rgb(42,171,228);"/>
    <path d="M90.688,245.382L119.829,249.588L115.624,278.729L86.482,274.524L90.688,245.382Z" style="fill:rgb(42,171,228);"/>
    <path d="M279.753,215.528L275.612,215.528L275.848,213.893L285.873,213.893L285.636,215.528L281.496,215.528L279.934,226.751L278.191,226.751L279.753,215.528Z" style="fill-rule:nonzero;"/>
    <path d="M246.911,246.606L251.506,246.606L250.616,252.944C250.277,253.138 249.896,253.307 249.472,253.453C249.048,253.598 248.615,253.722 248.173,253.825C247.732,253.928 247.287,254.003 246.839,254.052C246.391,254.1 245.973,254.124 245.586,254.124C244.496,254.124 243.549,253.943 242.744,253.58C241.939,253.216 241.288,252.726 240.791,252.109C240.295,251.491 239.947,250.774 239.747,249.957C239.547,249.14 239.514,248.277 239.647,247.369C239.781,246.413 240.071,245.523 240.519,244.699C240.967,243.876 241.53,243.162 242.208,242.557C242.886,241.951 243.661,241.476 244.532,241.131C245.404,240.786 246.33,240.613 247.311,240.613C248.485,240.613 249.433,240.762 250.153,241.058C250.873,241.355 251.445,241.764 251.869,242.284L250.434,243.61C249.974,243.101 249.463,242.747 248.9,242.548C248.337,242.348 247.729,242.248 247.075,242.248C246.336,242.248 245.649,242.384 245.014,242.656C244.378,242.929 243.818,243.295 243.334,243.755C242.85,244.215 242.447,244.757 242.126,245.38C241.805,246.004 241.597,246.667 241.5,247.369C241.403,248.095 241.439,248.77 241.609,249.394C241.778,250.017 242.054,250.559 242.435,251.019C242.816,251.479 243.291,251.839 243.86,252.1C244.429,252.36 245.071,252.49 245.785,252.49C246.403,252.49 246.993,252.433 247.556,252.318C248.119,252.203 248.612,252.036 249.036,251.818L249.545,248.241L246.693,248.241L246.911,246.606Z" style="fill-rule:nonzero;"/>
    <path d="M277.453,249.638L281.975,249.638C282.798,249.638 283.461,249.75 283.963,249.974C284.466,250.198 284.847,250.482 285.108,250.827C285.368,251.173 285.528,251.56 285.589,251.99C285.649,252.42 285.649,252.834 285.589,253.234C285.528,253.633 285.41,254.048 285.235,254.478C285.059,254.907 284.79,255.295 284.427,255.64C284.063,255.985 283.6,256.269 283.037,256.493C282.474,256.717 281.781,256.829 280.958,256.829L278.179,256.829L277.399,262.495L275.655,262.495L277.453,249.638ZM278.397,255.304L280.686,255.304C281.025,255.304 281.364,255.277 281.703,255.222C282.042,255.168 282.353,255.068 282.638,254.923C282.922,254.777 283.161,254.568 283.355,254.296C283.549,254.024 283.676,253.67 283.736,253.234C283.797,252.798 283.767,252.444 283.646,252.171C283.525,251.899 283.346,251.69 283.11,251.545C282.874,251.4 282.592,251.3 282.265,251.245C281.939,251.191 281.606,251.163 281.267,251.163L278.979,251.163L278.397,255.304Z" style="fill-rule:nonzero;"/>
    <path d="M311.28,240.319L310.172,248.201C310.112,248.6 310.109,249.015 310.163,249.444C310.218,249.874 310.345,250.271 310.545,250.634C310.744,250.997 311.035,251.294 311.416,251.524C311.798,251.754 312.291,251.869 312.896,251.869C313.502,251.869 314.028,251.754 314.476,251.524C314.924,251.294 315.3,250.997 315.602,250.634C315.905,250.271 316.138,249.874 316.301,249.444C316.465,249.015 316.577,248.6 316.637,248.201L317.745,240.319L319.488,240.319L318.344,248.473C318.235,249.224 318.011,249.905 317.672,250.516C317.333,251.127 316.91,251.657 316.401,252.105C315.893,252.553 315.318,252.898 314.676,253.14C314.034,253.382 313.362,253.503 312.66,253.503C311.958,253.503 311.32,253.382 310.744,253.14C310.169,252.898 309.691,252.553 309.31,252.105C308.928,251.657 308.653,251.127 308.484,250.516C308.314,249.905 308.284,249.224 308.393,248.473L309.537,240.319L311.28,240.319Z" style="fill-rule:nonzero;"/>
    <path d="M200.461,269.645L183.757,269.645" style="fill:none;stroke:black;stroke-width:1.77px;"/>
    <path d="M228.717,213.064L217.688,213.064" style="fill:none;stroke:black;stroke-width:1.77px;"/>
    <path d="M210.996,238.336L196.185,238.336" style="fill:none;stroke:black;stroke-width:1.77px;"/>
    <path d="M200.937,275.111L191.02,275.111" style="fill:none;stroke:black;stroke-width:1.77px;"/>
    <path d="M229.194,218.53L206.409,218.53" style="fill:none;stroke:black;stroke-width:1.77px;"/>
    <path d="M211.472,243.802L193.633,243.802" style="fill:none;stroke:black;stroke-width:1.77px;"/>
    <path d="M430.125,222.747L436.867,222.747L436.867,237.219L436.957,237.219C437.736,236.17 438.732,235.428 439.946,234.994C441.159,234.559 442.47,234.342 443.878,234.342C445.436,234.342 446.83,234.664 448.058,235.308C449.287,235.953 450.328,236.814 451.182,237.893C452.036,238.971 452.695,240.207 453.159,241.601C453.624,242.994 453.856,244.455 453.856,245.983C453.856,247.631 453.601,249.144 453.092,250.522C452.582,251.9 451.856,253.091 450.912,254.095C449.968,255.099 448.837,255.878 447.519,256.432C446.2,256.986 444.732,257.264 443.114,257.264C442.335,257.264 441.601,257.159 440.912,256.949C440.223,256.739 439.586,256.47 439.002,256.14C438.418,255.81 437.908,255.443 437.474,255.039C437.039,254.634 436.687,254.237 436.418,253.848L436.328,253.848L436.328,256.724L430.125,256.724L430.125,222.747ZM436.328,245.803C436.328,247.451 436.8,248.784 437.743,249.803C438.687,250.822 440.013,251.331 441.721,251.331C443.429,251.331 444.755,250.822 445.698,249.803C446.642,248.784 447.114,247.451 447.114,245.803C447.114,244.155 446.642,242.822 445.698,241.803C444.755,240.784 443.429,240.275 441.721,240.275C440.013,240.275 438.687,240.784 437.743,241.803C436.8,242.822 436.328,244.155 436.328,245.803Z" style="fill-rule:nonzero;"/>
    <path d="M470.395,260.275C469.946,261.443 469.511,262.477 469.092,263.376C468.672,264.275 468.14,265.031 467.496,265.646C466.852,266.26 466.036,266.724 465.047,267.039C464.058,267.353 462.755,267.511 461.137,267.511C459.399,267.511 457.721,267.241 456.103,266.702L457.002,261.174C458.021,261.623 459.069,261.848 460.148,261.848C460.897,261.848 461.511,261.765 461.991,261.601C462.47,261.436 462.867,261.196 463.182,260.882C463.496,260.567 463.758,260.185 463.968,259.735C464.178,259.286 464.403,258.762 464.642,258.162L465.137,256.904L455.564,234.881L462.845,234.881L468.463,249.308L468.552,249.308L473.361,234.881L480.283,234.881L470.395,260.275Z" style="fill-rule:nonzero;"/>
    <rect x="496.193" y="222.747" width="6.742" height="33.978" style="fill-rule:nonzero;"/>
    <path d="M520.148,241.308C519.159,240.08 517.856,239.466 516.238,239.466C515.669,239.466 515.114,239.601 514.575,239.87C514.036,240.14 513.766,240.604 513.766,241.264C513.766,241.803 514.043,242.2 514.598,242.455C515.152,242.709 515.856,242.934 516.71,243.129C517.564,243.323 518.478,243.533 519.452,243.758C520.425,243.983 521.339,244.335 522.193,244.814C523.047,245.293 523.751,245.945 524.305,246.769C524.86,247.593 525.137,248.694 525.137,250.073C525.137,251.481 524.83,252.642 524.216,253.556C523.601,254.47 522.815,255.204 521.856,255.758C520.897,256.312 519.819,256.702 518.62,256.926C517.422,257.151 516.238,257.264 515.069,257.264C513.541,257.264 511.998,257.046 510.44,256.612C508.882,256.177 507.564,255.406 506.485,254.297L510.575,249.758C511.204,250.537 511.901,251.129 512.665,251.533C513.429,251.938 514.32,252.14 515.339,252.14C516.118,252.14 516.822,252.028 517.452,251.803C518.081,251.578 518.395,251.166 518.395,250.567C518.395,249.998 518.118,249.571 517.564,249.286C517.01,249.001 516.305,248.762 515.452,248.567C514.598,248.372 513.684,248.162 512.71,247.938C511.736,247.713 510.822,247.376 509.968,246.926C509.114,246.477 508.41,245.84 507.856,245.016C507.302,244.192 507.025,243.091 507.025,241.713C507.025,240.425 507.287,239.316 507.811,238.387C508.335,237.458 509.025,236.694 509.878,236.095C510.732,235.496 511.714,235.054 512.822,234.769C513.931,234.484 515.055,234.342 516.193,234.342C517.631,234.342 519.084,234.552 520.553,234.971C522.021,235.391 523.264,236.14 524.283,237.219L520.148,241.308Z" style="fill-rule:nonzero;"/>
    <path d="M543.474,240.275L537.541,240.275L537.541,247.556C537.541,248.155 537.571,248.702 537.631,249.196C537.691,249.691 537.826,250.117 538.036,250.477C538.246,250.837 538.568,251.114 539.002,251.308C539.437,251.503 540.013,251.601 540.733,251.601C541.092,251.601 541.564,251.563 542.148,251.488C542.733,251.413 543.174,251.241 543.474,250.971L543.474,256.589C542.725,256.859 541.946,257.039 541.137,257.129C540.328,257.219 539.534,257.264 538.755,257.264C537.616,257.264 536.568,257.144 535.609,256.904C534.65,256.664 533.811,256.282 533.092,255.758C532.373,255.234 531.811,254.552 531.407,253.713C531.002,252.874 530.8,251.855 530.8,250.657L530.8,240.275L526.485,240.275L526.485,234.881L530.8,234.881L530.8,228.41L537.541,228.41L537.541,234.881L543.474,234.881L543.474,240.275Z" style="fill-rule:nonzero;"/>
    <path d="M546.081,245.803C546.081,244.065 546.395,242.492 547.025,241.084C547.654,239.675 548.515,238.469 549.609,237.466C550.703,236.462 551.991,235.69 553.474,235.151C554.957,234.612 556.538,234.342 558.216,234.342C559.894,234.342 561.474,234.612 562.957,235.151C564.44,235.69 565.729,236.462 566.822,237.466C567.916,238.469 568.778,239.675 569.407,241.084C570.036,242.492 570.351,244.065 570.351,245.803C570.351,247.541 570.036,249.114 569.407,250.522C568.778,251.93 567.916,253.136 566.822,254.14C565.729,255.144 564.44,255.915 562.957,256.455C561.474,256.994 559.894,257.264 558.216,257.264C556.538,257.264 554.957,256.994 553.474,256.455C551.991,255.915 550.703,255.144 549.609,254.14C548.515,253.136 547.654,251.93 547.025,250.522C546.395,249.114 546.081,247.541 546.081,245.803ZM552.822,245.803C552.822,247.451 553.294,248.784 554.238,249.803C555.182,250.822 556.508,251.331 558.216,251.331C559.924,251.331 561.249,250.822 562.193,249.803C563.137,248.784 563.609,247.451 563.609,245.803C563.609,244.155 563.137,242.822 562.193,241.803C561.249,240.784 559.924,240.275 558.216,240.275C556.508,240.275 555.182,240.784 554.238,241.803C553.294,242.822 552.822,244.155 552.822,245.803Z" style="fill-rule:nonzero;"/>
    <path d="M574.306,234.881L581.047,234.881L581.047,238.387L581.137,238.387C581.856,237.039 582.71,236.028 583.699,235.353C584.688,234.679 585.931,234.342 587.429,234.342C587.819,234.342 588.208,234.357 588.598,234.387C588.987,234.417 589.347,234.477 589.676,234.567L589.676,240.724C589.197,240.574 588.725,240.462 588.261,240.387C587.796,240.312 587.309,240.275 586.8,240.275C585.512,240.275 584.493,240.455 583.744,240.814C582.995,241.174 582.418,241.675 582.014,242.32C581.609,242.964 581.347,243.735 581.227,244.634C581.107,245.533 581.047,246.522 581.047,247.601L581.047,256.724L574.306,256.724L574.306,234.881Z" style="fill-rule:nonzero;"/>
    <path d="M606.575,241.938C606.246,241.458 605.781,241.061 605.182,240.747C604.583,240.432 603.939,240.275 603.25,240.275C601.542,240.275 600.216,240.784 599.272,241.803C598.328,242.822 597.856,244.155 597.856,245.803C597.856,247.451 598.328,248.784 599.272,249.803C600.216,250.822 601.542,251.331 603.25,251.331C603.999,251.331 604.643,251.166 605.182,250.837C605.721,250.507 606.186,250.117 606.575,249.668L611.025,254.342C609.976,255.421 608.74,256.177 607.317,256.612C605.894,257.046 604.538,257.264 603.25,257.264C601.572,257.264 599.991,256.994 598.508,256.455C597.025,255.915 595.736,255.144 594.643,254.14C593.549,253.136 592.688,251.93 592.059,250.522C591.429,249.114 591.115,247.541 591.115,245.803C591.115,244.065 591.429,242.492 592.059,241.084C592.688,239.675 593.549,238.469 594.643,237.466C595.736,236.462 597.025,235.69 598.508,235.151C599.991,234.612 601.572,234.342 603.25,234.342C604.538,234.342 605.894,234.559 607.317,234.994C608.74,235.428 609.976,236.185 611.025,237.263L606.575,241.938Z" style="fill-rule:nonzero;"/>
    <path d="M613.452,222.747L620.193,222.747L620.193,243.511L627.654,234.881L635.924,234.881L627.25,244.724L636.149,256.724L627.654,256.724L620.283,245.668L620.193,245.668L620.193,256.724L613.452,256.724L613.452,222.747Z" style="fill-rule:nonzero;"/>
    <path d="M650.8,241.308C649.812,240.08 648.508,239.466 646.89,239.466C646.321,239.466 645.767,239.601 645.227,239.87C644.688,240.14 644.418,240.604 644.418,241.264C644.418,241.803 644.695,242.2 645.25,242.455C645.804,242.709 646.508,242.934 647.362,243.129C648.216,243.323 649.13,243.533 650.104,243.758C651.077,243.983 651.991,244.335 652.845,244.814C653.699,245.293 654.403,245.945 654.958,246.769C655.512,247.593 655.789,248.694 655.789,250.073C655.789,251.481 655.482,252.642 654.868,253.556C654.253,254.47 653.467,255.204 652.508,255.758C651.549,256.312 650.471,256.702 649.272,256.926C648.074,257.151 646.89,257.264 645.722,257.264C644.194,257.264 642.65,257.046 641.092,256.612C639.534,256.177 638.216,255.406 637.137,254.297L641.227,249.758C641.856,250.537 642.553,251.129 643.317,251.533C644.081,251.938 644.973,252.14 645.991,252.14C646.77,252.14 647.474,252.028 648.104,251.803C648.733,251.578 649.047,251.166 649.047,250.567C649.047,249.998 648.77,249.571 648.216,249.286C647.662,249.001 646.958,248.762 646.104,248.567C645.25,248.372 644.336,248.162 643.362,247.938C642.388,247.713 641.474,247.376 640.62,246.926C639.767,246.477 639.062,245.84 638.508,245.016C637.954,244.192 637.677,243.091 637.677,241.713C637.677,240.425 637.939,239.316 638.463,238.387C638.988,237.458 639.677,236.694 640.531,236.095C641.385,235.496 642.366,235.054 643.474,234.769C644.583,234.484 645.707,234.342 646.845,234.342C648.283,234.342 649.737,234.552 651.205,234.971C652.673,235.391 653.916,236.14 654.935,237.219L650.8,241.308Z" style="fill-rule:nonzero;"/>
    <path d="M678.216,240.365C678.216,239.166 677.946,238.177 677.407,237.398C676.868,236.619 676.029,236.23 674.89,236.23C673.512,236.23 672.418,236.769 671.609,237.848C670.8,238.926 670.396,240.245 670.396,241.803C670.396,242.282 670.441,242.762 670.531,243.241C670.621,243.72 670.778,244.147 671.003,244.522C671.227,244.896 671.542,245.204 671.946,245.443C672.351,245.683 672.868,245.803 673.497,245.803C674.426,245.803 675.197,245.638 675.812,245.308C676.426,244.979 676.913,244.552 677.272,244.028C677.632,243.503 677.879,242.919 678.014,242.275C678.149,241.631 678.216,240.994 678.216,240.365ZM682.396,241.578C682.306,241.998 682.216,242.492 682.126,243.061C682.036,243.631 681.991,244.125 681.991,244.544C681.991,244.874 682.074,245.166 682.239,245.421C682.403,245.676 682.725,245.803 683.205,245.803C683.684,245.803 684.156,245.676 684.621,245.421C685.085,245.166 685.497,244.762 685.857,244.207C686.216,243.653 686.508,242.956 686.733,242.117C686.958,241.278 687.07,240.275 687.07,239.106C687.07,237.308 686.778,235.728 686.194,234.365C685.609,233.001 684.8,231.855 683.767,230.926C682.733,229.998 681.497,229.301 680.059,228.837C678.621,228.372 677.048,228.14 675.34,228.14C673.482,228.14 671.789,228.454 670.261,229.084C668.733,229.713 667.422,230.597 666.328,231.735C665.235,232.874 664.388,234.222 663.789,235.78C663.19,237.338 662.89,239.031 662.89,240.859C662.89,242.837 663.22,244.604 663.879,246.162C664.538,247.72 665.46,249.039 666.643,250.117C667.827,251.196 669.227,252.028 670.845,252.612C672.463,253.196 674.216,253.488 676.104,253.488C677.812,253.488 679.377,253.249 680.8,252.769C682.224,252.29 683.49,251.616 684.598,250.747L689.542,250.747C687.924,252.964 685.909,254.649 683.497,255.803C681.085,256.956 678.501,257.533 675.744,257.533C673.347,257.533 671.092,257.121 668.98,256.297C666.868,255.473 665.018,254.327 663.43,252.859C661.842,251.391 660.591,249.631 659.677,247.578C658.763,245.526 658.306,243.286 658.306,240.859C658.306,238.462 658.755,236.245 659.654,234.207C660.553,232.17 661.782,230.402 663.34,228.904C664.898,227.406 666.718,226.23 668.8,225.376C670.883,224.522 673.107,224.095 675.475,224.095C677.452,224.095 679.392,224.417 681.295,225.061C683.197,225.705 684.898,226.657 686.396,227.915C687.894,229.174 689.1,230.724 690.014,232.567C690.928,234.41 691.385,236.514 691.385,238.881C691.385,240.47 691.197,241.848 690.823,243.016C690.448,244.185 689.969,245.174 689.385,245.983C688.8,246.792 688.141,247.451 687.407,247.96C686.673,248.47 685.939,248.859 685.205,249.129C684.471,249.398 683.767,249.586 683.093,249.691C682.418,249.795 681.857,249.848 681.407,249.848C680.149,249.848 679.25,249.593 678.71,249.084C678.171,248.574 677.887,248.02 677.857,247.421L677.767,247.421C677.167,248.02 676.418,248.574 675.519,249.084C674.621,249.593 673.452,249.848 672.014,249.848C671.055,249.848 670.179,249.661 669.385,249.286C668.591,248.911 667.909,248.395 667.34,247.735C666.77,247.076 666.328,246.282 666.014,245.353C665.699,244.425 665.542,243.406 665.542,242.297C665.542,240.979 665.752,239.713 666.171,238.499C666.591,237.286 667.182,236.207 667.946,235.263C668.71,234.32 669.647,233.571 670.755,233.016C671.864,232.462 673.122,232.185 674.531,232.185C675.729,232.185 676.725,232.38 677.519,232.769C678.313,233.159 678.935,233.818 679.385,234.747L679.475,234.747L679.834,232.724L684.059,232.724L682.396,241.578Z" style="fill-rule:nonzero;"/>
    <path d="M708.913,253.983L708.823,253.983C708.074,255.151 707.078,255.99 705.834,256.5C704.591,257.009 703.28,257.264 701.902,257.264C700.883,257.264 699.902,257.121 698.958,256.837C698.014,256.552 697.182,256.125 696.463,255.556C695.744,254.986 695.175,254.282 694.755,253.443C694.336,252.604 694.126,251.631 694.126,250.522C694.126,249.264 694.358,248.2 694.823,247.331C695.287,246.462 695.917,245.743 696.711,245.174C697.505,244.604 698.411,244.162 699.43,243.848C700.448,243.533 701.505,243.301 702.598,243.151C703.692,243.001 704.785,242.911 705.879,242.881C706.973,242.852 707.984,242.837 708.913,242.837C708.913,241.638 708.486,240.687 707.632,239.983C706.778,239.278 705.767,238.926 704.598,238.926C703.49,238.926 702.478,239.159 701.565,239.623C700.651,240.087 699.834,240.724 699.115,241.533L695.52,237.848C696.778,236.679 698.246,235.803 699.924,235.219C701.602,234.634 703.34,234.342 705.138,234.342C707.115,234.342 708.741,234.589 710.014,235.084C711.287,235.578 712.306,236.305 713.07,237.263C713.834,238.222 714.366,239.398 714.666,240.792C714.965,242.185 715.115,243.795 715.115,245.623L715.115,256.724L708.913,256.724L708.913,253.983ZM707.25,247.151C706.741,247.151 706.104,247.174 705.34,247.219C704.576,247.264 703.842,247.391 703.138,247.601C702.433,247.81 701.834,248.125 701.34,248.544C700.845,248.964 700.598,249.548 700.598,250.297C700.598,251.106 700.943,251.705 701.632,252.095C702.321,252.485 703.04,252.679 703.789,252.679C704.448,252.679 705.085,252.589 705.699,252.41C706.314,252.23 706.86,251.975 707.34,251.646C707.819,251.316 708.201,250.897 708.486,250.387C708.771,249.878 708.913,249.279 708.913,248.589L708.913,247.151L707.25,247.151Z" style="fill-rule:nonzero;"/>
    <path d="M731.699,241.308C730.711,240.08 729.407,239.466 727.789,239.466C727.22,239.466 726.666,239.601 726.126,239.87C725.587,240.14 725.317,240.604 725.317,241.264C725.317,241.803 725.595,242.2 726.149,242.455C726.703,242.709 727.407,242.934 728.261,243.129C729.115,243.323 730.029,243.533 731.003,243.758C731.977,243.983 732.89,244.335 733.744,244.814C734.598,245.293 735.302,245.945 735.857,246.769C736.411,247.593 736.688,248.694 736.688,250.073C736.688,251.481 736.381,252.642 735.767,253.556C735.153,254.47 734.366,255.204 733.407,255.758C732.449,256.312 731.37,256.702 730.171,256.926C728.973,257.151 727.789,257.264 726.621,257.264C725.093,257.264 723.55,257.046 721.992,256.612C720.433,256.177 719.115,255.406 718.036,254.297L722.126,249.758C722.756,250.537 723.452,251.129 724.216,251.533C724.98,251.938 725.872,252.14 726.89,252.14C727.669,252.14 728.374,252.028 729.003,251.803C729.632,251.578 729.947,251.166 729.947,250.567C729.947,249.998 729.669,249.571 729.115,249.286C728.561,249.001 727.857,248.762 727.003,248.567C726.149,248.372 725.235,248.162 724.261,247.938C723.287,247.713 722.374,247.376 721.52,246.926C720.666,246.477 719.962,245.84 719.407,245.016C718.853,244.192 718.576,243.091 718.576,241.713C718.576,240.425 718.838,239.316 719.362,238.387C719.887,237.458 720.576,236.694 721.43,236.095C722.284,235.496 723.265,235.054 724.374,234.769C725.482,234.484 726.606,234.342 727.744,234.342C729.183,234.342 730.636,234.552 732.104,234.971C733.572,235.391 734.816,236.14 735.834,237.219L731.699,241.308Z" style="fill-rule:nonzero;"/>
    <path d="M755.025,240.275L749.093,240.275L749.093,247.556C749.093,248.155 749.123,248.702 749.183,249.196C749.243,249.691 749.377,250.117 749.587,250.477C749.797,250.837 750.119,251.114 750.553,251.308C750.988,251.503 751.565,251.601 752.284,251.601C752.643,251.601 753.115,251.563 753.7,251.488C754.284,251.413 754.726,251.241 755.025,250.971L755.025,256.589C754.276,256.859 753.497,257.039 752.688,257.129C751.879,257.219 751.085,257.264 750.306,257.264C749.168,257.264 748.119,257.144 747.16,256.904C746.201,256.664 745.362,256.282 744.643,255.758C743.924,255.234 743.362,254.552 742.958,253.713C742.553,252.874 742.351,251.855 742.351,250.657L742.351,240.275L738.037,240.275L738.037,234.881L742.351,234.881L742.351,228.41L749.093,228.41L749.093,234.881L755.025,234.881L755.025,240.275Z" style="fill-rule:nonzero;"/>
    <path d="M758.441,234.881L765.183,234.881L765.183,238.387L765.273,238.387C765.992,237.039 766.846,236.028 767.834,235.353C768.823,234.679 770.067,234.342 771.565,234.342C771.954,234.342 772.344,234.357 772.733,234.387C773.123,234.417 773.482,234.477 773.812,234.567L773.812,240.724C773.333,240.574 772.861,240.462 772.396,240.387C771.932,240.312 771.445,240.275 770.936,240.275C769.647,240.275 768.628,240.455 767.879,240.814C767.13,241.174 766.553,241.675 766.149,242.32C765.745,242.964 765.482,243.735 765.362,244.634C765.243,245.533 765.183,246.522 765.183,247.601L765.183,256.724L758.441,256.724L758.441,234.881Z" style="fill-rule:nonzero;"/>
    <path d="M775.115,245.803C775.115,244.065 775.43,242.492 776.059,241.084C776.688,239.675 777.55,238.469 778.643,237.466C779.737,236.462 781.025,235.69 782.509,235.151C783.992,234.612 785.572,234.342 787.25,234.342C788.928,234.342 790.509,234.612 791.992,235.151C793.475,235.69 794.763,236.462 795.857,237.466C796.951,238.469 797.812,239.675 798.441,241.084C799.07,242.492 799.385,244.065 799.385,245.803C799.385,247.541 799.07,249.114 798.441,250.522C797.812,251.93 796.951,253.136 795.857,254.14C794.763,255.144 793.475,255.915 791.992,256.455C790.509,256.994 788.928,257.264 787.25,257.264C785.572,257.264 783.992,256.994 782.509,256.455C781.025,255.915 779.737,255.144 778.643,254.14C777.55,253.136 776.688,251.93 776.059,250.522C775.43,249.114 775.115,247.541 775.115,245.803ZM781.857,245.803C781.857,247.451 782.329,248.784 783.273,249.803C784.216,250.822 785.542,251.331 787.25,251.331C788.958,251.331 790.284,250.822 791.228,249.803C792.172,248.784 792.643,247.451 792.643,245.803C792.643,244.155 792.172,242.822 791.228,241.803C790.284,240.784 788.958,240.275 787.25,240.275C785.542,240.275 784.216,240.784 783.273,241.803C782.329,242.822 781.857,244.155 781.857,245.803Z" style="fill-rule:nonzero;"/>
    <path d="M817.048,253.983L816.958,253.983C816.209,255.151 815.213,255.99 813.969,256.5C812.726,257.009 811.415,257.264 810.037,257.264C809.018,257.264 808.037,257.121 807.093,256.837C806.149,256.552 805.318,256.125 804.599,255.556C803.879,254.986 803.31,254.282 802.891,253.443C802.471,252.604 802.261,251.631 802.261,250.522C802.261,249.264 802.494,248.2 802.958,247.331C803.423,246.462 804.052,245.743 804.846,245.174C805.64,244.604 806.546,244.162 807.565,243.848C808.584,243.533 809.64,243.301 810.733,243.151C811.827,243.001 812.921,242.911 814.014,242.881C815.108,242.852 816.119,242.837 817.048,242.837C817.048,241.638 816.621,240.687 815.767,239.983C814.913,239.278 813.902,238.926 812.733,238.926C811.625,238.926 810.614,239.159 809.7,239.623C808.786,240.087 807.969,240.724 807.25,241.533L803.655,237.848C804.913,236.679 806.381,235.803 808.059,235.219C809.737,234.634 811.475,234.342 813.273,234.342C815.25,234.342 816.876,234.589 818.149,235.084C819.423,235.578 820.441,236.305 821.205,237.263C821.969,238.222 822.501,239.398 822.801,240.792C823.101,242.185 823.25,243.795 823.25,245.623L823.25,256.724L817.048,256.724L817.048,253.983ZM815.385,247.151C814.876,247.151 814.239,247.174 813.475,247.219C812.711,247.264 811.977,247.391 811.273,247.601C810.569,247.81 809.969,248.125 809.475,248.544C808.981,248.964 808.733,249.548 808.733,250.297C808.733,251.106 809.078,251.705 809.767,252.095C810.456,252.485 811.175,252.679 811.924,252.679C812.584,252.679 813.22,252.589 813.835,252.41C814.449,252.23 814.996,251.975 815.475,251.646C815.954,251.316 816.336,250.897 816.621,250.387C816.906,249.878 817.048,249.279 817.048,248.589L817.048,247.151L815.385,247.151Z" style="fill-rule:nonzero;"/>
    <path d="M827.565,234.881L834.307,234.881L834.307,256.724L827.565,256.724L827.565,234.881ZM827.026,228.005C827.026,226.926 827.408,226.005 828.172,225.241C828.936,224.477 829.857,224.095 830.936,224.095C832.014,224.095 832.936,224.477 833.7,225.241C834.464,226.005 834.846,226.926 834.846,228.005C834.846,229.084 834.464,230.005 833.7,230.769C832.936,231.533 832.014,231.915 830.936,231.915C829.857,231.915 828.936,231.533 828.172,230.769C827.408,230.005 827.026,229.084 827.026,228.005Z" style="fill-rule:nonzero;"/>
    <defs>
        <radialGradient id="_Radial1" cx="0" cy="0" r="1" gradientUnits="userSpaceOnUse" gradientTransform="matrix(21.5324,0,0,21.5324,577.157,34.3579)"><stop offset="0" style="stop-color:rgb(0,3,255);stop-opacity:1"/><stop offset="1" style="stop-color:rgb(42,171,228);stop-opacity:1"/></radialGradient>
    </defs>
</svg>
